# Blender v2.83.2 OBJ File: 'heat_exchanger_medium.blend'
# www.blender.org
mtllib heat_exchanger_medium.mtl
o yuanzhu_Cylinder.012
v 4.500000 0.092176 -0.389068
v 1.000000 0.092176 -0.389068
v 1.000000 0.092176 0.389068
v 4.500000 0.092176 0.389067
v 1.000000 0.610932 0.907824
v 4.500000 0.610932 0.907824
v 1.000000 1.389068 0.907824
v 4.500000 1.389068 0.907824
v 1.000000 1.907824 0.389068
v 4.500000 1.907824 0.389068
v 1.000000 1.907824 -0.389068
v 4.500000 1.907824 -0.389068
v 1.000000 1.389068 -0.907824
v 4.500000 1.389068 -0.907824
v 1.000000 0.610932 -0.907824
v 4.500000 0.610932 -0.907824
v 5.000000 1.453912 -0.453912
v 5.000000 1.453912 0.453912
v 5.000000 0.546088 -0.453912
v 5.000000 0.546088 0.453912
vt 0.531250 0.000000
vt 0.656250 0.000000
vt 0.656250 0.812500
vt 0.531250 0.812500
vt 0.500000 0.000000
vt 0.375000 0.000000
vt 0.375000 0.812500
vt 0.500000 0.812500
vt 0.250000 0.000000
vt 0.250000 0.812500
vt 0.125000 0.000000
vt 0.125000 0.812500
vt 0.000000 0.000000
vt 0.000000 0.812500
vt 0.125000 0.000000
vt 0.250000 0.000000
vt 0.250000 0.812500
vt 0.125000 0.812500
vt 0.937500 0.562500
vt 1.000000 0.468750
vt 0.937500 0.375000
vt 0.843750 0.312500
vt 0.750000 0.375000
vt 0.687500 0.468750
vt 0.750000 0.562500
vt 0.843750 0.625000
vt 0.375000 0.000000
vt 0.375000 0.812500
vt 0.500000 0.000000
vt 0.500000 0.812500
vt 0.273594 0.100000
vt 0.273594 0.100000
vt 0.272344 0.100000
vt 0.272344 0.100000
vt 0.789062 0.281250
vt 0.914062 0.281250
vt 0.914062 0.406250
vt 0.789062 0.406250
vt 0.276094 0.100000
vt 0.276094 0.100000
vt 0.277344 0.100000
vt 0.277656 0.100000
vt 0.277656 0.100000
vt 0.278906 0.100000
vt 0.278906 0.100000
vt 0.276094 0.100000
vt 0.276094 0.100000
vt 0.274844 0.100000
vt 0.274844 0.100000
vt 0.273594 0.100000
vt 0.273594 0.100000
vt 0.274844 0.100000
vt 0.274844 0.100000
vt 0.277344 0.100000
vt 0.277344 0.100000
vn -0.0000 -1.0000 -0.0000
vn 0.0000 -0.7071 0.7071
vn 0.0000 -0.0000 1.0000
vn 0.0000 0.7071 0.7071
vn 0.0000 1.0000 0.0000
vn 0.0000 0.7071 -0.7071
vn -1.0000 -0.0000 0.0000
vn 0.0000 0.0000 -1.0000
vn 0.0000 -0.7071 -0.7071
vn 0.6722 0.7404 0.0000
vn 1.0000 -0.0000 0.0000
vn 0.4821 -0.6195 -0.6195
vn 0.6722 -0.7404 -0.0000
vn 0.6722 -0.0000 0.7404
vn 0.4821 0.6195 -0.6195
vn 0.4821 0.6195 0.6195
vn 0.6722 0.0000 -0.7404
vn 0.4821 -0.6195 0.6195
usemtl LargePipe
s 1
f 1/1/1 4/2/1 3/3/1 2/4/1
f 4/5/2 6/6/2 5/7/2 3/8/2
f 6/6/3 8/9/3 7/10/3 5/7/3
f 8/9/4 10/11/4 9/12/4 7/10/4
f 10/11/5 12/13/5 11/14/5 9/12/5
f 12/15/6 14/16/6 13/17/6 11/18/6
f 3/19/7 5/20/7 7/21/7 9/22/7 11/23/7 13/24/7 15/25/7 2/26/7
f 14/16/8 16/27/8 15/28/8 13/17/8
f 16/27/9 1/29/9 2/30/9 15/28/9
f 10/31/10 18/32/10 17/33/10 12/34/10
f 19/35/11 17/36/11 18/37/11 20/38/11
f 16/39/12 19/40/12 1/41/12
f 1/42/13 19/43/13 20/44/13 4/45/13
f 6/46/14 20/47/14 18/48/14 8/49/14
f 12/50/15 17/51/15 14/52/15
f 8/49/16 18/48/16 10/31/16
f 14/52/17 17/53/17 19/40/17 16/39/17
f 4/54/18 20/55/18 6/46/18
o Cylinder.001
v 1.044582 0.037500 -0.412500
v 0.982082 0.037500 -0.412500
v 0.982082 0.037500 0.412500
v 1.044582 0.037500 0.412500
v 0.982082 0.587500 0.962500
v 1.044582 0.587500 0.962500
v 0.982082 1.412500 0.962500
v 1.044582 1.412500 0.962500
v 0.982082 1.962500 0.412500
v 1.044582 1.962500 0.412500
v 0.982082 1.962500 -0.412500
v 1.044582 1.962500 -0.412500
v 0.982082 1.412500 -0.962500
v 1.044582 1.412500 -0.962500
v 0.982082 0.587500 -0.962500
v 1.044582 0.587500 -0.962500
vt 0.842608 0.296209
vt 0.841153 0.296209
vt 0.841153 0.315416
vt 0.842608 0.315416
vt 0.841153 0.328220
vt 0.842608 0.296597
vt 0.841153 0.296597
vt 0.841153 0.315804
vt 0.842608 0.328220
vt 0.841153 0.328220
vt 0.841153 0.315416
vt 0.842608 0.315416
vt 0.841153 0.296209
vt 0.842608 0.328608
vt 0.841153 0.328608
vt 0.841153 0.315804
vt 0.842608 0.315804
vt 0.841153 0.296597
vt 0.842608 0.283405
vt 0.841153 0.283405
vt 0.831982 0.283405
vt 0.851189 0.328220
vt 0.819178 0.315416
vt 0.819178 0.296209
vt 0.831982 0.328220
vt 0.863993 0.296209
vt 0.863993 0.315416
vt 0.851189 0.283405
vt 0.842608 0.328220
vt 0.842608 0.315804
vt 0.842608 0.296209
vt 0.842608 0.296597
vn 0.0000 -1.0000 -0.0000
vn 0.0000 -0.7071 0.7071
vn 0.0000 -0.0000 1.0000
vn 0.0000 0.7071 0.7071
vn 0.0000 1.0000 0.0000
vn 0.0000 0.7071 -0.7071
vn 0.0000 0.0000 -1.0000
vn 0.0000 -0.7071 -0.7071
vn 1.0000 -0.0000 0.0000
usemtl LargePipe
s 1
f 22/56/19 21/57/19 24/58/19
f 23/59/20 24/58/20 26/60/20
f 25/61/21 26/62/21 28/63/21
f 27/64/22 28/65/22 30/66/22
f 29/67/23 30/66/23 32/68/23
f 31/69/24 32/70/24 34/71/24
f 22/56/19 24/58/19 23/59/19
f 33/72/25 34/71/25 36/73/25
f 35/74/26 36/75/26 21/57/26
f 36/76/27 28/77/27 24/78/27
f 36/76/27 24/78/27 21/79/27
f 24/78/27 28/77/27 26/80/27
f 28/77/27 32/81/27 30/82/27
f 32/81/27 28/77/27 34/83/27
f 34/83/27 28/77/27 36/76/27
f 23/59/20 26/60/20 25/84/20
f 25/61/21 28/63/21 27/85/21
f 27/64/22 30/66/22 29/67/22
f 29/67/23 32/68/23 31/86/23
f 31/69/24 34/71/24 33/72/24
f 33/72/25 36/73/25 35/87/25
f 35/74/26 21/57/26 22/56/26
o Cube.001_Cube.002
v 0.000000 0.067592 1.000000
v 0.000000 1.932408 1.000000
v 1.000000 1.932408 1.000000
v 1.000000 0.067592 1.000000
v 0.000000 0.000000 -0.932408
v 0.000000 0.067592 -1.000000
v 0.000000 1.932408 -1.000000
v 0.000000 2.000000 -0.932408
v 0.000000 2.000000 0.932408
v 0.000000 -0.000000 0.932408
v 1.000000 2.000000 -0.932408
v 1.000000 2.000000 0.932408
v 1.000000 -0.000000 0.932408
v 1.000000 1.932408 -1.000000
v 1.000000 0.067592 -1.000000
v 1.000000 0.000000 -0.932408
vt 0.132812 0.625000
vt 0.132812 0.500000
vt 0.367188 0.500000
vt 0.367188 0.625000
vt 0.382812 0.250000
vt 0.617188 0.500000
vt 0.625000 0.257812
vt 0.382812 0.500000
vt 0.382812 0.625000
vt 0.617188 0.625000
vt 0.383449 0.000000
vt 0.616551 0.250000
vt 0.625000 0.008449
vt 0.132812 0.500000
vt 0.132812 0.625000
vt 0.367188 0.625000
vt 0.367188 0.500000
vt 0.375000 0.508449
vt 0.375000 0.500000
vt 0.125000 0.500000
vt 0.125000 0.508449
vt 0.625000 0.250000
vt 0.616551 0.500000
vt 0.625000 0.500000
vt 0.125000 0.741551
vt 0.125000 0.750000
vt 0.375000 0.750000
vt 0.375000 0.741551
vt 0.625000 0.750000
vt 0.616551 0.750000
vt 0.616551 1.000000
vt 0.625000 1.000000
vt 0.632812 0.625000
vt 0.867188 0.625000
vt 0.867188 0.500000
vt 0.632812 0.500000
vt 0.617188 0.250000
vt 0.625000 0.492188
vt 0.375000 0.492188
vt 0.375000 0.257812
vt 0.375000 0.241551
vt 0.375000 0.008449
vt 0.616551 0.000000
vt 0.625000 0.241551
vt 0.383449 0.250000
vn 0.0000 -0.0000 1.0000
vn -1.0000 0.0000 0.0000
vn 0.0000 1.0000 0.0000
vn 1.0000 -0.0000 0.0000
vn 0.0000 0.0000 -1.0000
vn 0.0000 -0.7071 -0.7071
vn 0.0000 0.7071 -0.7071
vn 0.0000 -0.7071 0.7071
vn 0.0000 0.7071 0.7071
vn 0.0000 -1.0000 -0.0000
usemtl Cube
s 1
f 37/88/28 40/89/28 39/90/28 38/91/28
f 46/92/29 44/93/29 42/94/29
f 44/93/30 45/95/30 48/96/30 47/97/30
f 40/98/31 50/99/31 48/100/31
f 51/101/32 42/102/32 43/103/32 50/104/32
f 41/105/33 42/106/33 51/107/33 52/108/33
f 47/109/34 50/99/34 43/110/34 44/111/34
f 49/112/35 40/113/35 37/114/35 46/115/35
f 45/116/36 38/117/36 39/118/36 48/119/36
f 52/120/37 49/121/37 46/122/37 41/123/37
f 46/92/29 42/94/29 41/124/29
f 42/94/29 44/93/29 43/125/29
f 44/93/29 38/126/29 45/95/29
f 38/126/29 44/93/29 37/127/29
f 37/127/29 44/93/29 46/92/29
f 52/128/31 40/98/31 49/129/31
f 40/98/31 48/100/31 39/130/31
f 48/100/31 50/99/31 47/131/31
f 50/99/31 52/128/31 51/132/31
f 52/128/31 50/99/31 40/98/31
o jio_Cube.009
v 3.837500 -0.000000 0.850000
v 3.837500 1.000000 0.850000
v 3.837500 1.000000 -0.850000
v 3.837500 -0.000000 -0.850000
v 3.537500 1.000000 -0.850000
v 3.537500 -0.000000 -0.850000
v 3.537500 1.000000 0.850000
v 3.537500 -0.000000 0.850000
vt 0.125659 0.586379
vt 0.125659 0.163621
vt 0.374341 0.163621
vt 0.374341 0.586379
vt 0.212698 0.250659
vt 0.287302 0.250659
vt 0.287302 0.499341
vt 0.212698 0.499341
vt 0.125659 0.163621
vt 0.125659 0.586379
vt 0.374341 0.586379
vt 0.374341 0.163621
vt 0.287302 0.250659
vt 0.212698 0.250659
vt 0.212698 0.499341
vt 0.287302 0.499341
vt 0.212698 0.163621
vt 0.212698 0.586379
vt 0.287302 0.586379
vt 0.287302 0.163621
vt 0.287302 0.163621
vt 0.287302 0.586379
vt 0.212698 0.586379
vt 0.212698 0.163621
vn 1.0000 0.0000 0.0000
vn 0.0000 0.0000 -1.0000
vn -1.0000 0.0000 0.0000
vn 0.0000 -0.0000 1.0000
vn 0.0000 -1.0000 -0.0000
vn 0.0000 1.0000 0.0000
usemtl LargePipe
s 1
f 53/133/38 56/134/38 55/135/38 54/136/38
f 56/137/39 58/138/39 57/139/39 55/140/39
f 58/141/40 60/142/40 59/143/40 57/144/40
f 60/145/41 53/146/41 54/147/41 59/148/41
f 56/149/42 53/150/42 60/151/42 58/152/42
f 57/153/43 59/154/43 54/155/43 55/156/43
o 小水管上_Cylinder.002
v 1.124866 0.962500 0.339228
v 1.124866 2.012500 0.339228
v 1.124866 2.012500 0.660772
v 1.124866 0.962500 0.660772
v 1.339228 2.012500 0.875134
v 1.339228 0.962500 0.875134
v 1.660772 2.012500 0.875134
v 1.660772 0.962500 0.875134
v 1.875134 2.012500 0.660772
v 1.875134 0.962500 0.660772
v 1.875134 2.012500 0.339228
v 1.875134 0.962500 0.339228
v 1.660772 2.012500 0.124866
v 1.660772 0.962500 0.124866
v 1.339228 2.012500 0.124866
v 1.339228 0.962500 0.124866
vt 0.531250 0.000000
vt 0.656250 0.000000
vt 0.656250 0.812500
vt 0.531250 0.812500
vt 0.500000 0.000000
vt 0.375000 0.000000
vt 0.375000 0.812500
vt 0.500000 0.812500
vt 0.250000 0.000000
vt 0.250000 0.812500
vt 0.125000 0.000000
vt 0.125000 0.812500
vt 0.000000 0.000000
vt 0.000000 0.812500
vt 0.125000 0.000000
vt 0.250000 0.000000
vt 0.250000 0.812500
vt 0.125000 0.812500
vt 0.781250 0.343750
vt 0.906250 0.031250
vt 0.687500 0.125000
vt 0.375000 0.000000
vt 0.375000 0.812500
vt 0.500000 0.000000
vt 0.500000 0.812500
vt 1.000000 0.250000
vt 0.906250 0.312500
vt 0.718750 0.250000
vt 0.781250 0.062500
vt 0.968750 0.125000
vn -1.0000 0.0000 0.0000
vn -0.7071 -0.0000 0.7071
vn 0.0000 -0.0000 1.0000
vn 0.7071 -0.0000 0.7071
vn 1.0000 0.0000 0.0000
vn 0.7071 0.0000 -0.7071
vn 0.0000 1.0000 0.0000
vn 0.0000 0.0000 -1.0000
vn -0.7071 0.0000 -0.7071
usemtl SmallPipe
s 1
f 61/157/44 64/158/44 63/159/44 62/160/44
f 64/161/45 66/162/45 65/163/45 63/164/45
f 66/162/46 68/165/46 67/166/46 65/163/46
f 68/165/47 70/167/47 69/168/47 67/166/47
f 70/167/48 72/169/48 71/170/48 69/168/48
f 72/171/49 74/172/49 73/173/49 71/174/49
f 62/175/50 69/176/50 73/177/50
f 74/172/51 76/178/51 75/179/51 73/173/51
f 76/178/52 61/180/52 62/181/52 75/179/52
f 65/182/50 62/175/50 63/183/50
f 62/175/50 73/177/50 75/184/50
f 73/177/50 69/176/50 71/185/50
f 69/176/50 65/182/50 67/186/50
f 65/182/50 69/176/50 62/175/50
o 小水管下_Cylinder.004
v 1.124866 1.037500 -0.339228
v 1.124866 -0.012500 -0.339228
v 1.124866 -0.012500 -0.660772
v 1.124866 1.037500 -0.660772
v 1.339228 -0.012500 -0.875134
v 1.339228 1.037500 -0.875134
v 1.660772 -0.012500 -0.875134
v 1.660772 1.037500 -0.875134
v 1.875134 -0.012500 -0.660772
v 1.875134 1.037500 -0.660772
v 1.875134 -0.012500 -0.339228
v 1.875134 1.037500 -0.339228
v 1.660772 -0.012500 -0.124866
v 1.660772 1.037500 -0.124866
v 1.339228 -0.012500 -0.124866
v 1.339228 1.037500 -0.124866
vt 0.531250 0.000000
vt 0.656250 0.000000
vt 0.656250 0.812500
vt 0.531250 0.812500
vt 0.500000 0.000000
vt 0.375000 0.000000
vt 0.375000 0.812500
vt 0.500000 0.812500
vt 0.250000 0.000000
vt 0.250000 0.812500
vt 0.125000 0.000000
vt 0.125000 0.812500
vt 0.000000 0.000000
vt 0.000000 0.812500
vt 0.125000 0.000000
vt 0.250000 0.000000
vt 0.250000 0.812500
vt 0.125000 0.812500
vt 0.785085 0.613569
vt 0.902415 0.323931
vt 0.698931 0.410085
vt 0.375000 0.000000
vt 0.375000 0.812500
vt 0.500000 0.000000
vt 0.500000 0.812500
vt 0.988569 0.527415
vt 0.895442 0.590840
vt 0.721660 0.520442
vt 0.792058 0.346660
vt 0.965840 0.417058
vn -1.0000 0.0000 0.0000
vn -0.7071 0.0000 -0.7071
vn 0.0000 0.0000 -1.0000
vn 0.7071 0.0000 -0.7071
vn 1.0000 0.0000 0.0000
vn 0.7071 -0.0000 0.7071
vn -0.0000 -1.0000 -0.0000
vn 0.0000 -0.0000 1.0000
vn -0.7071 -0.0000 0.7071
usemtl SmallPipe
s 1
f 77/187/53 80/188/53 79/189/53 78/190/53
f 80/191/54 82/192/54 81/193/54 79/194/54
f 82/192/55 84/195/55 83/196/55 81/193/55
f 84/195/56 86/197/56 85/198/56 83/196/56
f 86/197/57 88/199/57 87/200/57 85/198/57
f 88/201/58 90/202/58 89/203/58 87/204/58
f 78/205/59 85/206/59 89/207/59
f 90/202/60 92/208/60 91/209/60 89/203/60
f 92/208/61 77/210/61 78/211/61 91/209/61
f 81/212/59 78/205/59 79/213/59
f 78/205/59 89/207/59 91/214/59
f 89/207/59 85/206/59 87/215/59
f 85/206/59 81/212/59 83/216/59
f 81/212/59 85/206/59 78/205/59
