# Blender v2.83.2 OBJ File: 'heat_exchanger_medium.blend'
# www.blender.org
mtllib heat_exchanger_medium.mtl
o yuanzhu_Cylinder.012
v 4.500000 0.092176 0.610932
v 1.000000 0.092176 0.610932
v 1.000000 0.092176 1.389068
v 4.500000 0.092176 1.389067
v 1.000000 0.610932 1.907824
v 4.500000 0.610932 1.907824
v 1.000000 1.389068 1.907824
v 4.500000 1.389068 1.907824
v 1.000000 1.907824 1.389068
v 4.500000 1.907824 1.389068
v 1.000000 1.907824 0.610932
v 4.500000 1.907824 0.610932
v 1.000000 1.389068 0.092176
v 4.500000 1.389068 0.092176
v 1.000000 0.610932 0.092176
v 4.500000 0.610932 0.092176
v 5.000000 1.453912 0.546088
v 5.000000 1.453912 1.453912
v 5.000000 0.546088 0.546088
v 5.000000 0.546088 1.453912
vt 0.531250 0.000000
vt 0.656250 0.000000
vt 0.656250 0.812500
vt 0.531250 0.812500
vt 0.500000 0.000000
vt 0.375000 0.000000
vt 0.375000 0.812500
vt 0.500000 0.812500
vt 0.250000 0.000000
vt 0.250000 0.812500
vt 0.125000 0.000000
vt 0.125000 0.812500
vt 0.000000 0.000000
vt 0.000000 0.812500
vt 0.125000 0.000000
vt 0.250000 0.000000
vt 0.250000 0.812500
vt 0.125000 0.812500
vt 0.937500 0.562500
vt 1.000000 0.468750
vt 0.937500 0.375000
vt 0.843750 0.312500
vt 0.750000 0.375000
vt 0.687500 0.468750
vt 0.750000 0.562500
vt 0.843750 0.625000
vt 0.375000 0.000000
vt 0.375000 0.812500
vt 0.500000 0.000000
vt 0.500000 0.812500
vt 0.273594 0.100000
vt 0.273594 0.100000
vt 0.272344 0.100000
vt 0.272344 0.100000
vt 0.789062 0.281250
vt 0.914062 0.281250
vt 0.914062 0.406250
vt 0.789062 0.406250
vt 0.276094 0.100000
vt 0.276094 0.100000
vt 0.277344 0.100000
vt 0.277656 0.100000
vt 0.277656 0.100000
vt 0.278906 0.100000
vt 0.278906 0.100000
vt 0.276094 0.100000
vt 0.276094 0.100000
vt 0.274844 0.100000
vt 0.274844 0.100000
vt 0.273594 0.100000
vt 0.273594 0.100000
vt 0.274844 0.100000
vt 0.274844 0.100000
vt 0.277344 0.100000
vt 0.277344 0.100000
vn -0.0000 -1.0000 -0.0000
vn 0.0000 -0.7071 0.7071
vn 0.0000 -0.0000 1.0000
vn 0.0000 0.7071 0.7071
vn 0.0000 1.0000 0.0000
vn 0.0000 0.7071 -0.7071
vn -1.0000 0.0000 0.0000
vn 0.0000 0.0000 -1.0000
vn 0.0000 -0.7071 -0.7071
vn 0.6722 0.7404 0.0000
vn 1.0000 0.0000 0.0000
vn 0.4821 -0.6195 -0.6195
vn 0.6722 -0.7404 -0.0000
vn 0.6722 0.0000 0.7404
vn 0.4821 0.6195 -0.6195
vn 0.4821 0.6195 0.6195
vn 0.6722 0.0000 -0.7404
vn 0.4821 -0.6195 0.6195
usemtl m_zhu
s 1
f 1/1/1 4/2/1 3/3/1 2/4/1
f 4/5/2 6/6/2 5/7/2 3/8/2
f 6/6/3 8/9/3 7/10/3 5/7/3
f 8/9/4 10/11/4 9/12/4 7/10/4
f 10/11/5 12/13/5 11/14/5 9/12/5
f 12/15/6 14/16/6 13/17/6 11/18/6
f 3/19/7 5/20/7 7/21/7 9/22/7 11/23/7 13/24/7 15/25/7 2/26/7
f 14/16/8 16/27/8 15/28/8 13/17/8
f 16/27/9 1/29/9 2/30/9 15/28/9
f 10/31/10 18/32/10 17/33/10 12/34/10
f 19/35/11 17/36/11 18/37/11 20/38/11
f 16/39/12 19/40/12 1/41/12
f 1/42/13 19/43/13 20/44/13 4/45/13
f 6/46/14 20/47/14 18/48/14 8/49/14
f 12/50/15 17/51/15 14/52/15
f 8/49/16 18/48/16 10/31/16
f 14/52/17 17/53/17 19/40/17 16/39/17
f 4/54/18 20/55/18 6/46/18
o Cylinder.001
v 1.044582 0.037500 0.587500
v 0.982082 0.037500 0.587500
v 0.982082 0.037500 1.412500
v 1.044582 0.037500 1.412500
v 0.982082 0.587500 1.962500
v 1.044582 0.587500 1.962500
v 0.982082 1.412500 1.962500
v 1.044582 1.412500 1.962500
v 0.982082 1.962500 1.412500
v 1.044582 1.962500 1.412500
v 0.982082 1.962500 0.587500
v 1.044582 1.962500 0.587500
v 0.982082 1.412500 0.037500
v 1.044582 1.412500 0.037500
v 0.982082 0.587500 0.037500
v 1.044582 0.587500 0.037500
vt 0.486048 0.731791
vt 0.486048 0.731791
vt 0.486048 0.731791
vt 0.486048 0.731791
vt 0.486048 0.731791
vt 0.486048 0.731791
vt 0.486048 0.731791
vt 0.486048 0.731791
vt 0.486048 0.731791
vt 0.486048 0.731791
vt 0.486048 0.731791
vt 0.486048 0.731791
vt 0.486048 0.731791
vt 0.486048 0.731791
vt 0.486048 0.731791
vt 0.486048 0.731791
vn 0.0000 -1.0000 -0.0000
vn 0.0000 -0.7071 0.7071
vn 0.0000 -0.0000 1.0000
vn 0.0000 0.7071 0.7071
vn 0.0000 1.0000 0.0000
vn 0.0000 0.7071 -0.7071
vn -1.0000 0.0000 0.0000
vn 0.0000 0.0000 -1.0000
vn 0.0000 -0.7071 -0.7071
vn 1.0000 0.0000 0.0000
usemtl m_zhu.001
s 1
f 21/56/19 24/57/19 23/58/19 22/59/19
f 24/57/20 26/60/20 25/61/20 23/58/20
f 26/60/21 28/62/21 27/63/21 25/61/21
f 28/62/22 30/64/22 29/65/22 27/63/22
f 30/64/23 32/66/23 31/67/23 29/65/23
f 32/66/24 34/68/24 33/69/24 31/67/24
f 23/58/25 25/61/25 27/63/25 29/65/25 31/67/25 33/69/25 35/70/25 22/59/25
f 34/68/26 36/71/26 35/70/26 33/69/26
f 36/71/27 21/56/27 22/59/27 35/70/27
f 21/56/28 36/71/28 34/68/28 32/66/28 30/64/28 28/62/28 26/60/28 24/57/28
o Cube.001_Cube.002
v 0.000000 0.067592 2.000000
v 0.000000 1.932408 2.000000
v 1.000000 1.932408 2.000000
v 1.000000 0.067592 2.000000
v 0.000000 0.000000 0.067592
v 0.000000 0.067592 0.000000
v 0.000000 1.932408 0.000000
v 0.000000 2.000000 0.067592
v 0.000000 2.000000 1.932408
v 0.000000 -0.000000 1.932408
v 1.000000 2.000000 0.067592
v 1.000000 2.000000 1.932408
v 1.000000 -0.000000 1.932408
v 1.000000 1.932408 0.000000
v 1.000000 0.067592 0.000000
v 1.000000 0.000000 0.067592
vt 0.132812 0.625000
vt 0.132812 0.500000
vt 0.367188 0.500000
vt 0.367188 0.625000
vt 0.617188 0.250000
vt 0.382812 0.250000
vt 0.375000 0.257812
vt 0.375000 0.492188
vt 0.382812 0.500000
vt 0.617188 0.500000
vt 0.625000 0.492188
vt 0.625000 0.257812
vt 0.382812 0.625000
vt 0.617188 0.625000
vt 0.375000 0.008449
vt 0.375000 0.241551
vt 0.383449 0.250000
vt 0.616551 0.250000
vt 0.625000 0.241551
vt 0.625000 0.008449
vt 0.616551 0.000000
vt 0.383449 0.000000
vt 0.132812 0.500000
vt 0.132812 0.625000
vt 0.367188 0.625000
vt 0.367188 0.500000
vt 0.375000 0.508449
vt 0.375000 0.500000
vt 0.125000 0.500000
vt 0.125000 0.508449
vt 0.625000 0.250000
vt 0.616551 0.500000
vt 0.625000 0.500000
vt 0.125000 0.741551
vt 0.125000 0.750000
vt 0.375000 0.750000
vt 0.375000 0.741551
vt 0.625000 0.750000
vt 0.616551 0.750000
vt 0.616551 1.000000
vt 0.625000 1.000000
vt 0.632812 0.625000
vt 0.867188 0.625000
vt 0.867188 0.500000
vt 0.632812 0.500000
vn 0.0000 -0.0000 1.0000
vn -1.0000 0.0000 0.0000
vn 0.0000 1.0000 0.0000
vn 1.0000 0.0000 0.0000
vn 0.0000 0.0000 -1.0000
vn 0.0000 -0.7071 -0.7071
vn 0.0000 0.7071 -0.7071
vn 0.0000 -0.7071 0.7071
vn 0.0000 0.7071 0.7071
vn 0.0000 -1.0000 -0.0000
usemtl m_cube.002
s 1
f 37/72/29 40/73/29 39/74/29 38/75/29
f 41/76/30 46/77/30 37/78/30 38/79/30 45/80/30 44/81/30 43/82/30 42/83/30
f 44/81/31 45/80/31 48/84/31 47/85/31
f 49/86/32 52/87/32 51/88/32 50/89/32 47/90/32 48/91/32 39/92/32 40/93/32
f 51/94/33 42/95/33 43/96/33 50/97/33
f 41/98/34 42/99/34 51/100/34 52/101/34
f 47/102/35 50/89/35 43/103/35 44/104/35
f 49/105/36 40/106/36 37/107/36 46/108/36
f 45/109/37 38/110/37 39/111/37 48/112/37
f 52/113/38 49/114/38 46/115/38 41/116/38
o jio_Cube.009
v 3.837500 -0.000000 1.850000
v 3.837500 1.000000 1.850000
v 3.837500 1.000000 0.150000
v 3.837500 -0.000000 0.150000
v 3.537500 1.000000 0.150000
v 3.537500 -0.000000 0.150000
v 3.537500 1.000000 1.850000
v 3.537500 -0.000000 1.850000
vt 0.000000 0.375000
vt 0.343750 0.375000
vt 0.343750 0.625000
vt 0.000000 0.625000
vt 0.343750 0.343750
vt 0.406250 0.343750
vt 0.406250 0.625000
vt 0.000000 0.375000
vt 0.343750 0.375000
vt 0.343750 0.625000
vt 0.000000 0.625000
vt 0.343750 0.343750
vt 0.406250 0.343750
vt 0.406250 0.625000
vt 0.531250 0.343750
vt 0.531250 0.656250
vt 0.468750 0.656250
vt 0.468750 0.343750
vt 0.333333 0.666667
vt 0.333333 1.000000
vt 0.000000 1.000000
vt 0.000000 0.666667
vn 1.0000 0.0000 0.0000
vn 0.0000 0.0000 -1.0000
vn -1.0000 0.0000 0.0000
vn 0.0000 -0.0000 1.0000
vn 0.0000 -1.0000 -0.0000
vn 0.0000 1.0000 0.0000
usemtl m_cube.008
s 1
f 53/117/39 56/118/39 55/119/39 54/120/39
f 56/121/40 58/122/40 57/123/40 55/119/40
f 58/124/41 60/125/41 59/126/41 57/127/41
f 60/128/42 53/129/42 54/130/42 59/126/42
f 56/131/43 53/132/43 60/133/43 58/134/43
f 57/135/44 59/136/44 54/137/44 55/138/44
o 小水管上_Cylinder.002
v 1.124866 0.962500 1.339228
v 1.124866 2.012500 1.339228
v 1.124866 2.012500 1.660772
v 1.124866 0.962500 1.660772
v 1.339228 2.012500 1.875134
v 1.339228 0.962500 1.875134
v 1.660772 2.012500 1.875134
v 1.660772 0.962500 1.875134
v 1.875134 2.012500 1.660772
v 1.875134 0.962500 1.660772
v 1.875134 2.012500 1.339228
v 1.875134 0.962500 1.339228
v 1.660772 2.012500 1.124866
v 1.660772 0.962500 1.124866
v 1.339228 2.012500 1.124866
v 1.339228 0.962500 1.124866
v 1.687567 0.812500 1.312433
v 1.687567 0.812500 1.687567
v 1.312433 0.812500 1.312433
v 1.312433 0.812500 1.687567
vt 0.531250 0.000000
vt 0.656250 0.000000
vt 0.656250 0.812500
vt 0.531250 0.812500
vt 0.500000 0.000000
vt 0.375000 0.000000
vt 0.375000 0.812500
vt 0.500000 0.812500
vt 0.250000 0.000000
vt 0.250000 0.812500
vt 0.125000 0.000000
vt 0.125000 0.812500
vt 0.000000 0.000000
vt 0.000000 0.812500
vt 0.125000 0.000000
vt 0.250000 0.000000
vt 0.250000 0.812500
vt 0.125000 0.812500
vt 0.906250 0.312500
vt 1.000000 0.250000
vt 0.968750 0.125000
vt 0.906250 0.031250
vt 0.781250 0.062500
vt 0.687500 0.125000
vt 0.718750 0.250000
vt 0.781250 0.343750
vt 0.375000 0.000000
vt 0.375000 0.812500
vt 0.500000 0.000000
vt 0.500000 0.812500
vt 0.125000 0.000000
vt 0.000000 0.000000
vt 0.531250 0.437500
vt 0.531250 0.562500
vt 0.406250 0.562500
vt 0.406250 0.437500
vt 0.375000 0.000000
vt 0.531250 0.000000
vt 0.656250 0.000000
vt 0.375000 0.000000
vt 0.250000 0.000000
vt 0.125000 0.000000
vt 0.250000 0.000000
vt 0.500000 0.000000
vn -1.0000 0.0000 0.0000
vn -0.7071 -0.0000 0.7071
vn 0.0000 -0.0000 1.0000
vn 0.7071 -0.0000 0.7071
vn 1.0000 0.0000 0.0000
vn 0.7071 0.0000 -0.7071
vn 0.0000 1.0000 0.0000
vn 0.0000 0.0000 -1.0000
vn -0.7071 0.0000 -0.7071
vn 0.6246 -0.7810 -0.0000
vn 0.0000 -1.0000 -0.0000
vn -0.5635 -0.6040 -0.5635
vn -0.6246 -0.7810 -0.0000
vn 0.0000 -0.7810 0.6246
vn 0.5635 -0.6040 -0.5635
vn 0.5635 -0.6040 0.5635
vn 0.0000 -0.7810 -0.6246
vn -0.5635 -0.6040 0.5635
usemtl m_zhu.003
s 1
f 61/139/45 64/140/45 63/141/45 62/142/45
f 64/143/46 66/144/46 65/145/46 63/146/46
f 66/144/47 68/147/47 67/148/47 65/145/47
f 68/147/48 70/149/48 69/150/48 67/148/48
f 70/149/49 72/151/49 71/152/49 69/150/49
f 72/153/50 74/154/50 73/155/50 71/156/50
f 63/157/51 65/158/51 67/159/51 69/160/51 71/161/51 73/162/51 75/163/51 62/164/51
f 74/154/52 76/165/52 75/166/52 73/155/52
f 76/165/53 61/167/53 62/168/53 75/166/53
f 70/149/54 78/169/54 77/170/54 72/151/54
f 79/171/55 77/172/55 78/173/55 80/174/55
f 76/165/56 79/175/56 61/167/56
f 61/139/57 79/176/57 80/177/57 64/140/57
f 66/144/58 80/178/58 78/179/58 68/147/58
f 72/153/59 77/180/59 74/154/59
f 68/147/60 78/179/60 70/149/60
f 74/154/61 77/181/61 79/175/61 76/165/61
f 64/143/62 80/182/62 66/144/62
o 小水管下_Cylinder.004
v 1.124866 1.037500 0.660772
v 1.124866 -0.012500 0.660772
v 1.124866 -0.012500 0.339228
v 1.124866 1.037500 0.339228
v 1.339228 -0.012500 0.124866
v 1.339228 1.037500 0.124866
v 1.660772 -0.012500 0.124866
v 1.660772 1.037500 0.124866
v 1.875134 -0.012500 0.339228
v 1.875134 1.037500 0.339228
v 1.875134 -0.012500 0.660772
v 1.875134 1.037500 0.660772
v 1.660772 -0.012500 0.875134
v 1.660772 1.037500 0.875134
v 1.339228 -0.012500 0.875134
v 1.339228 1.037500 0.875134
v 1.687567 1.187500 0.687567
v 1.687567 1.187500 0.312433
v 1.312433 1.187500 0.687567
v 1.312433 1.187500 0.312433
vt 0.531250 0.000000
vt 0.656250 0.000000
vt 0.656250 0.812500
vt 0.531250 0.812500
vt 0.500000 0.000000
vt 0.375000 0.000000
vt 0.375000 0.812500
vt 0.500000 0.812500
vt 0.250000 0.000000
vt 0.250000 0.812500
vt 0.125000 0.000000
vt 0.125000 0.812500
vt 0.000000 0.000000
vt 0.000000 0.812500
vt 0.125000 0.000000
vt 0.250000 0.000000
vt 0.250000 0.812500
vt 0.125000 0.812500
vt 0.895442 0.590840
vt 0.988569 0.527415
vt 0.965840 0.417058
vt 0.902415 0.323931
vt 0.792058 0.346660
vt 0.698931 0.410085
vt 0.721660 0.520442
vt 0.785085 0.613569
vt 0.375000 0.000000
vt 0.375000 0.812500
vt 0.500000 0.000000
vt 0.500000 0.812500
vt 0.125000 0.000000
vt 0.000000 0.000000
vt 0.531250 0.437500
vt 0.531250 0.562500
vt 0.406250 0.562500
vt 0.406250 0.437500
vt 0.375000 0.000000
vt 0.531250 0.000000
vt 0.656250 0.000000
vt 0.375000 0.000000
vt 0.250000 0.000000
vt 0.125000 0.000000
vt 0.250000 0.000000
vt 0.500000 0.000000
vn -1.0000 0.0000 0.0000
vn -0.7071 0.0000 -0.7071
vn 0.0000 0.0000 -1.0000
vn 0.7071 0.0000 -0.7071
vn 1.0000 0.0000 0.0000
vn 0.7071 -0.0000 0.7071
vn 0.0000 -1.0000 -0.0000
vn 0.0000 -0.0000 1.0000
vn -0.7071 -0.0000 0.7071
vn 0.6246 0.7810 0.0000
vn 0.0000 1.0000 0.0000
vn -0.5635 0.6040 0.5635
vn -0.6246 0.7810 0.0000
vn 0.0000 0.7810 -0.6246
vn 0.5635 0.6040 0.5635
vn 0.5635 0.6040 -0.5635
vn 0.0000 0.7810 0.6246
vn -0.5635 0.6040 -0.5635
usemtl m_zhu.005
s 1
f 81/183/63 84/184/63 83/185/63 82/186/63
f 84/187/64 86/188/64 85/189/64 83/190/64
f 86/188/65 88/191/65 87/192/65 85/189/65
f 88/191/66 90/193/66 89/194/66 87/192/66
f 90/193/67 92/195/67 91/196/67 89/194/67
f 92/197/68 94/198/68 93/199/68 91/200/68
f 83/201/69 85/202/69 87/203/69 89/204/69 91/205/69 93/206/69 95/207/69 82/208/69
f 94/198/70 96/209/70 95/210/70 93/199/70
f 96/209/71 81/211/71 82/212/71 95/210/71
f 90/193/72 98/213/72 97/214/72 92/195/72
f 99/215/73 97/216/73 98/217/73 100/218/73
f 96/209/74 99/219/74 81/211/74
f 81/183/75 99/220/75 100/221/75 84/184/75
f 86/188/76 100/222/76 98/223/76 88/191/76
f 92/197/77 97/224/77 94/198/77
f 88/191/78 98/223/78 90/193/78
f 94/198/79 97/225/79 99/219/79 96/209/79
f 84/187/80 100/226/80 86/188/80
