# Blender v2.83.2 OBJ File: 'heat_exchanger_small.blend'
# www.blender.org
mtllib heat_exchanger_small.mtl
o Cube_Cube.005
v 3.000000 1.000000 1.000000
v 3.000000 0.000000 0.000000
v 3.000000 -0.000000 1.000000
v 3.000000 1.000000 0.000000
v 4.000000 0.000000 0.000000
v 4.000000 1.000000 0.000000
v 4.000000 -0.000000 1.000000
v 4.000000 1.000000 1.000000
vt 0.375000 0.500000
vt 0.375000 0.750000
vt 0.625000 0.750000
vt 0.625000 0.500000
vt 0.375000 1.000000
vt 0.625000 1.000000
vt 0.875000 0.750000
vt 0.875000 0.500000
vt 0.125000 0.500000
vt 0.125000 0.750000
vt 0.375000 0.000000
vt 0.375000 0.250000
vt 0.625000 0.250000
vt 0.625000 0.000000
vn 1.0000 0.0000 0.0000
vn 0.0000 -0.0000 1.0000
vn 0.0000 -1.0000 -0.0000
vn 0.0000 1.0000 0.0000
vn -1.0000 0.0000 0.0000
vn 0.0000 0.0000 -1.0000
usemtl cube
s 1
f 6/1/1 8/2/1 7/3/1 5/4/1
f 8/2/2 1/5/2 3/6/2 7/3/2
f 5/4/3 7/3/3 3/7/3 2/8/3
f 4/9/4 1/10/4 8/2/4 6/1/4
f 1/11/5 4/12/5 2/13/5 3/14/5
f 4/12/6 6/1/6 5/4/6 2/13/6
o Cylinder_Cylinder.012
v 3.000000 0.878943 0.348423
v 1.000000 0.651577 0.121057
v 1.000000 0.878943 0.348423
v 3.000000 0.651577 0.121057
v 1.000000 0.348423 0.121057
v 3.000000 0.348423 0.121057
v 1.000000 0.121057 0.348423
v 3.000000 0.121057 0.348423
v 1.000000 0.121057 0.651577
v 3.000000 0.121057 0.651577
v 1.000000 0.348423 0.878943
v 3.000000 0.348423 0.878943
v 1.000000 0.651577 0.878943
v 3.000000 0.651577 0.878943
v 1.000000 0.878943 0.651577
v 3.000000 0.878943 0.651577
vt 0.531250 -0.000000
vt 0.625000 -0.000000
vt 0.625000 0.812500
vt 0.531250 0.812500
vt 0.687500 -0.000000
vt 0.687500 0.812500
vt 0.343750 -0.000000
vt 0.437500 -0.000000
vt 0.437500 0.812500
vt 0.343750 0.812500
vt 0.156250 -0.000000
vt 0.250000 -0.000000
vt 0.250000 0.812500
vt 0.156250 0.812500
vt -0.000000 -0.000000
vt 0.062500 0.000000
vt 0.062500 0.812500
vt 0.000000 0.812500
vn 0.0000 0.0000 -1.0000
vn 0.0000 -0.7071 -0.7071
vn 0.0000 1.0000 0.0000
vn 0.0000 0.0000 1.0000
vn 0.0000 0.7071 0.7071
vn 0.0000 -1.0000 -0.0000
vn 0.0000 -0.7071 0.7071
vn 0.0000 0.7071 -0.7071
usemtl pipe
s 1
f 12/15/7 14/16/7 13/17/7 10/18/7
f 14/16/8 16/19/8 15/20/8 13/17/8
f 24/21/9 9/22/9 11/23/9 23/24/9
f 20/25/10 22/26/10 21/27/10 19/28/10
f 22/26/11 24/21/11 23/24/11 21/27/11
f 16/29/12 18/30/12 17/31/12 15/32/12
f 18/30/13 20/25/13 19/28/13 17/31/13
f 9/22/14 12/15/14 10/18/14 11/23/14
o Cube.002_Cube.001
v 1.000000 1.000000 0.000000
v 1.000000 -0.000000 1.000000
v 1.000000 0.000000 0.000000
v 1.000000 1.000000 1.000000
v 0.000000 -0.000000 1.000000
v 0.000000 1.000000 1.000000
v 0.000000 0.000000 0.000000
v 0.000000 1.000000 0.000000
vt 0.375000 0.750000
vt 0.375000 1.000000
vt 0.625000 1.000000
vt 0.625000 0.750000
vt 0.375000 0.250000
vt 0.375000 0.500000
vt 0.625000 0.500000
vt 0.625000 0.250000
vt 0.875000 0.750000
vt 0.875000 0.500000
vt 0.125000 0.500000
vt 0.125000 0.750000
vt 0.375000 0.000000
vt 0.625000 0.000000
vn 0.0000 0.0000 -1.0000
vn 0.0000 -0.0000 1.0000
vn 0.0000 -1.0000 -0.0000
vn 0.0000 1.0000 0.0000
vn 1.0000 0.0000 0.0000
vn -1.0000 0.0000 0.0000
usemtl cube
s 1
f 32/33/15 25/34/15 27/35/15 31/36/15
f 28/37/16 30/38/16 29/39/16 26/40/16
f 29/39/17 31/36/17 27/41/17 26/42/17
f 28/43/18 25/44/18 32/33/18 30/38/18
f 25/45/19 28/37/19 26/40/19 27/46/19
f 30/38/20 32/33/20 31/36/20 29/39/20
o Cylinder.001
v 3.000000 0.062500 0.312500
v 2.937500 0.062500 0.687500
v 2.937500 0.062500 0.312500
v 3.000000 0.062500 0.687500
v 2.937500 0.312500 0.937500
v 3.000000 0.687500 0.937500
v 2.937500 0.687500 0.937500
v 3.000000 0.937500 0.687500
v 2.937500 0.937500 0.687500
v 3.000000 0.937500 0.312500
v 2.937500 0.937500 0.312500
v 2.937500 0.687500 0.062500
v 3.000000 0.312500 0.937500
v 3.000000 0.687500 0.062500
v 2.937500 0.312500 0.062500
v 3.000000 0.312500 0.062500
v 3.000000 0.500000 0.937500
v 3.000000 0.062500 0.500000
v 3.000000 0.187500 0.812500
v 3.000000 0.812500 0.812500
v 3.000000 0.937500 0.500000
v 3.000000 0.812500 0.187500
v 3.000000 0.187500 0.187500
v 3.000000 0.500000 0.062500
vt 0.187500 0.250000
vt 0.093750 0.468750
vt 0.093750 0.343750
vt 0.187500 0.562500
vt 0.312500 0.250000
vt 0.312500 0.562500
vt 0.406250 0.343750
vt 0.406250 0.468750
vt 0.625000 0.812500
vt 0.593750 0.812500
vt 0.593750 0.781250
vt 0.125000 0.812500
vt 0.093750 0.812500
vt 0.093750 0.781250
vt 0.312500 0.812500
vt 0.250000 0.781250
vt 0.343750 0.781250
vt 0.562500 0.812500
vt 0.500000 0.781250
vt 0.468750 0.812500
vt 0.437500 0.781250
vt 0.375000 0.812500
vt 0.031250 0.812500
vt -0.000000 0.812500
vt -0.000000 0.781250
vt 0.218750 0.812500
vt 0.156250 0.781250
vt 0.687500 0.781250
vt 0.687500 0.812500
vt 0.156250 0.812500
vt 0.343750 0.812500
vt 0.250000 0.812500
vt 0.500000 0.812500
vt 0.437500 0.812500
vn -1.0000 -0.0000 0.0000
vn -0.0000 1.0000 0.0000
vn 0.0000 -0.0000 1.0000
vn 0.0000 -1.0000 -0.0000
vn 0.0000 0.7071 -0.7071
vn 0.0000 0.0000 -1.0000
vn -0.0000 -0.7071 -0.7071
vn -0.0000 0.7071 0.7071
vn 0.0000 -0.7071 0.7071
usemtl pipe
s off
f 35/47/21 44/48/21 47/49/21
f 35/47/21 43/50/21 44/48/21
f 34/51/21 43/50/21 35/47/21
f 34/51/21 41/52/21 43/50/21
f 37/53/21 41/52/21 34/51/21
f 37/53/21 39/54/21 41/52/21
s 1
f 53/55/22 42/56/22 43/57/22
f 49/58/23 38/59/23 39/60/23
f 50/61/24 34/62/24 35/63/24
f 54/64/25 44/65/25 43/57/25
f 56/66/26 47/67/26 44/65/26
f 55/68/27 35/63/27 47/67/27
f 52/69/28 40/70/28 41/71/28
f 51/72/29 37/73/29 34/62/29
f 43/57/22 41/74/22 53/55/22
f 41/74/22 40/75/22 53/55/22
f 39/60/23 37/73/23 49/58/23
f 37/73/23 45/76/23 49/58/23
f 35/63/24 33/77/24 50/61/24
f 50/61/24 36/78/24 34/62/24
f 43/57/25 42/56/25 54/64/25
f 54/64/25 46/79/25 44/65/25
f 44/65/26 46/79/26 56/66/26
f 56/66/26 48/80/26 47/67/26
f 47/67/27 48/80/27 55/68/27
f 55/68/27 33/77/27 35/63/27
f 41/71/28 39/60/28 52/69/28
f 39/60/28 38/59/28 52/69/28
f 34/62/29 36/78/29 51/72/29
f 51/72/29 45/76/29 37/73/29
