# Blender v2.83.2 OBJ File: 'heat_exchanger_large.blend'
# www.blender.org
mtllib heat_exchanger_large.mtl
o jio_Cube.001
v -0.760497 -0.000000 2.032574
v -0.760498 1.000000 2.032574
v 1.789503 1.000000 2.032574
v 1.789503 -0.000000 2.032574
v 1.789503 1.000000 2.482574
v 1.789503 -0.000000 2.482574
v -0.760498 1.000000 2.482574
v -0.760497 -0.000000 2.482574
vt 0.125659 0.586379
vt 0.374341 0.586379
vt 0.374341 0.163621
vt 0.125659 0.163621
vt 0.212698 0.250659
vt 0.212698 0.499341
vt 0.287302 0.499341
vt 0.287302 0.250659
vt 0.125659 0.163621
vt 0.374341 0.163621
vt 0.374341 0.586379
vt 0.125659 0.586379
vt 0.287302 0.250659
vt 0.287302 0.499341
vt 0.212698 0.499341
vt 0.212698 0.250659
vt 0.212698 0.163621
vt 0.287302 0.163621
vt 0.287302 0.586379
vt 0.212698 0.586379
vn -0.0000 -0.0000 -1.0000
vn 1.0000 0.0000 0.0000
vn 0.0000 0.0000 1.0000
vn -1.0000 -0.0000 0.0000
vn 0.0000 -1.0000 0.0000
usemtl LargePipe
s 1
f 1/1/1 2/2/1 3/3/1 4/4/1
f 4/5/2 3/6/2 5/7/2 6/8/2
f 6/9/3 5/10/3 7/11/3 8/12/3
f 8/13/4 7/14/4 2/15/4 1/16/4
f 4/17/5 6/18/5 8/19/5 1/20/5
o yuanzhu_Cylinder.012
v 1.098104 0.138264 -2.250000
v 1.098105 0.138264 3.000000
v -0.069099 0.138264 3.000000
v -0.069098 0.138264 -2.250000
v -0.847233 0.916398 3.000000
v -0.847234 0.916398 -2.250000
v -0.847234 2.083601 3.000000
v -0.847234 2.083601 -2.250000
v -0.069100 2.861736 3.000000
v -0.069100 2.861736 -2.250000
v 1.098104 2.861736 3.000000
v 1.098104 2.861736 -2.250000
v 1.876239 2.083602 3.000000
v 1.876238 2.083602 -2.250000
v 1.876239 0.916398 3.000000
v 1.876238 0.916398 -2.250000
v 1.195370 2.180868 -3.000000
v -0.166366 2.180868 -3.000000
v 1.195370 0.819132 -3.000000
v -0.166366 0.819132 -3.000000
vt 0.531250 0.000000
vt 0.531250 0.812500
vt 0.656250 0.812500
vt 0.656250 0.000000
vt 0.500000 0.000000
vt 0.500000 0.812500
vt 0.375000 0.812500
vt 0.375000 0.000000
vt 0.250000 0.812500
vt 0.250000 0.000000
vt 0.125000 0.812500
vt 0.125000 0.000000
vt 0.000000 0.812500
vt 0.000000 0.000000
vt 0.125000 0.000000
vt 0.125000 0.812500
vt 0.250000 0.812500
vt 0.250000 0.000000
vt 0.375000 0.812500
vt 0.375000 0.000000
vt 0.500000 0.812500
vt 0.500000 0.000000
vt 0.273594 0.100000
vt 0.272344 0.100000
vt 0.272344 0.100000
vt 0.273594 0.100000
vt 0.789062 0.281250
vt 0.789062 0.406250
vt 0.914062 0.406250
vt 0.914062 0.281250
vt 0.276094 0.100000
vt 0.277344 0.100000
vt 0.276094 0.100000
vt 0.277656 0.100000
vt 0.278906 0.100000
vt 0.278906 0.100000
vt 0.277656 0.100000
vt 0.276094 0.100000
vt 0.274844 0.100000
vt 0.274844 0.100000
vt 0.276094 0.100000
vt 0.273594 0.100000
vt 0.274844 0.100000
vt 0.273594 0.100000
vt 0.274844 0.100000
vt 0.277344 0.100000
vt 0.277344 0.100000
vn 0.0000 -1.0000 -0.0000
vn -0.7071 -0.7071 -0.0000
vn -1.0000 -0.0000 0.0000
vn -0.7071 0.7071 0.0000
vn 0.0000 1.0000 -0.0000
vn 0.7071 0.7071 -0.0000
vn 1.0000 0.0000 -0.0000
vn 0.7071 -0.7071 -0.0000
vn 0.0000 0.7404 -0.6722
vn 0.0000 0.0000 -1.0000
vn 0.6195 -0.6195 -0.4821
vn 0.0000 -0.7404 -0.6722
vn -0.7404 -0.0000 -0.6722
vn 0.6195 0.6195 -0.4821
vn -0.6195 0.6195 -0.4821
vn 0.7404 0.0000 -0.6722
vn -0.6195 -0.6195 -0.4821
usemtl LargePipe
s 1
f 9/21/6 10/22/6 11/23/6 12/24/6
f 12/25/7 11/26/7 13/27/7 14/28/7
f 14/28/8 13/27/8 15/29/8 16/30/8
f 16/30/9 15/29/9 17/31/9 18/32/9
f 18/32/10 17/31/10 19/33/10 20/34/10
f 20/35/11 19/36/11 21/37/11 22/38/11
f 22/38/12 21/37/12 23/39/12 24/40/12
f 24/40/13 23/39/13 10/41/13 9/42/13
f 18/43/14 20/44/14 25/45/14 26/46/14
f 27/47/15 28/48/15 26/49/15 25/50/15
f 24/51/16 9/52/16 27/53/16
f 9/54/17 12/55/17 28/56/17 27/57/17
f 14/58/18 16/59/18 26/60/18 28/61/18
f 20/62/19 22/63/19 25/64/19
f 16/59/20 18/43/20 26/60/20
f 22/63/21 24/51/21 27/53/21 25/65/21
f 12/66/22 14/58/22 28/67/22
o Cylinder.001
v 1.133253 0.056250 2.955418
v 1.133253 0.056250 3.017918
v -0.104247 0.056250 3.017918
v -0.104247 0.056250 2.955418
v -0.929247 0.881249 3.017918
v -0.929247 0.881249 2.955418
v -0.929248 2.118749 3.017918
v -0.929248 2.118749 2.955418
v -0.104248 2.943750 3.017918
v -0.104248 2.943750 2.955418
v 1.133252 2.943750 3.017918
v 1.133252 2.943750 2.955418
v 1.958253 2.118750 3.017918
v 1.958253 2.118750 2.955418
v 1.958253 0.881250 3.017918
v 1.958253 0.881250 2.955418
vt 0.842608 0.296209
vt 0.841153 0.315416
vt 0.841153 0.296209
vt 0.842608 0.315416
vt 0.841153 0.328220
vt 0.842608 0.296597
vt 0.841153 0.315804
vt 0.841153 0.296597
vt 0.842608 0.328220
vt 0.841153 0.315416
vt 0.841153 0.328220
vt 0.842608 0.315416
vt 0.841153 0.296209
vt 0.842608 0.328608
vt 0.841153 0.315804
vt 0.841153 0.328608
vt 0.842608 0.315804
vt 0.841153 0.296597
vt 0.842608 0.283405
vt 0.841153 0.283405
vt 0.831982 0.283405
vt 0.819178 0.315416
vt 0.851189 0.328220
vt 0.819178 0.296209
vt 0.831982 0.328220
vt 0.863993 0.315416
vt 0.863993 0.296209
vt 0.851189 0.283405
vt 0.842608 0.328220
vt 0.842608 0.315804
vt 0.842608 0.296209
vt 0.842608 0.296597
vn 0.0000 -1.0000 0.0000
vn -0.7071 -0.7071 0.0000
vn -1.0000 -0.0000 0.0000
vn -0.7071 0.7071 0.0000
vn 0.0000 1.0000 0.0000
vn 0.7071 0.7071 0.0000
vn 1.0000 0.0000 0.0000
vn 0.7071 -0.7071 0.0000
vn -0.0000 -0.0000 -1.0000
usemtl LargePipe
s 1
f 30/68/23 32/69/23 29/70/23
f 31/71/24 34/72/24 32/69/24
f 33/73/25 36/74/25 34/75/25
f 35/76/26 38/77/26 36/78/26
f 37/79/27 40/80/27 38/77/27
f 39/81/28 42/82/28 40/83/28
f 30/68/23 31/71/23 32/69/23
f 41/84/29 44/85/29 42/82/29
f 43/86/30 29/70/30 44/87/30
f 44/88/31 32/89/31 36/90/31
f 44/88/31 29/91/31 32/89/31
f 32/89/31 34/92/31 36/90/31
f 36/90/31 38/93/31 40/94/31
f 40/94/31 42/95/31 36/90/31
f 42/95/31 44/88/31 36/90/31
f 31/71/24 33/96/24 34/72/24
f 33/73/25 35/97/25 36/74/25
f 35/76/26 37/79/26 38/77/26
f 37/79/27 39/98/27 40/80/27
f 39/81/28 41/84/28 42/82/28
f 41/84/29 43/99/29 44/85/29
f 43/86/30 30/68/30 29/70/30
o Cube.001_Cube.002
v -1.000000 0.101388 4.000000
v -1.000000 2.898612 4.000000
v -1.000000 2.898612 3.000000
v -1.000000 0.101388 3.000000
v 1.898612 0.000000 4.000000
v 2.000000 0.101388 4.000000
v 2.000000 2.898612 4.000000
v 1.898612 3.000000 4.000000
v -0.898612 3.000000 4.000000
v -0.898612 -0.000000 4.000000
v 1.898612 3.000000 3.000000
v -0.898612 3.000000 3.000000
v -0.898612 -0.000000 3.000000
v 2.000000 2.898612 3.000000
v 2.000000 0.101388 3.000000
v 1.898612 0.000000 3.000000
vt 0.125000 0.421875
vt 0.125000 0.796875
vt -0.000000 0.796875
vt 0.000000 0.421875
vt 0.412093 0.000276
vt 0.770726 0.012820
vt 0.758181 0.371453
vt 0.328125 0.796875
vt 0.203125 0.796875
vt 0.203125 0.421875
vt 0.328125 0.421875
vt 0.125000 0.421875
vt 0.125000 0.796875
vt 0.000000 0.796875
vt -0.000000 0.421875
vt 0.187813 0.055680
vt 0.187813 0.305680
vt 0.163916 0.305680
vt 0.163916 0.055680
vt 0.163916 0.055680
vt 0.163916 0.305680
vt 0.147018 0.305680
vt 0.147018 0.055680
vt 0.211710 0.055680
vt 0.211710 0.305680
vt 0.187813 0.305680
vt 0.187813 0.055680
vt 0.130120 0.305680
vt 0.130120 0.055680
vt 0.147018 0.055680
vt 0.147018 0.305680
vt 0.507812 0.796875
vt 0.382812 0.796875
vt 0.382812 0.421875
vt 0.507812 0.421875
vt 0.758182 0.000276
vt 0.770726 0.358909
vt 0.412093 0.371453
vt 0.399548 0.358909
vt 0.399548 0.012820
vt 0.014880 0.004206
vt 0.360621 0.004205
vt 0.373153 0.016737
vt 0.373154 0.362479
vt 0.360622 0.375010
vt 0.014879 0.375010
vt 0.002348 0.362479
vt 0.003262 0.360652
vt 0.003262 0.014910
vt 0.015793 0.002379
vn -1.0000 -0.0000 0.0000
vn 0.0000 0.0000 1.0000
vn -0.0000 1.0000 0.0000
vn 1.0000 0.0000 0.0000
vn 0.7071 -0.7071 0.0000
vn 0.7071 0.7071 0.0000
vn -0.7071 -0.7071 0.0000
vn -0.7071 0.7071 0.0000
vn 0.0000 -1.0000 0.0000
vn 0.0000 0.0000 -1.0000
usemtl Cube
s 1
f 45/100/32 46/101/32 47/102/32 48/103/32
f 54/104/33 50/105/33 52/106/33
f 52/107/34 55/108/34 56/109/34 53/110/34
f 59/111/35 58/112/35 51/113/35 50/114/35
f 49/115/36 60/116/36 59/117/36 50/118/36
f 55/119/37 52/120/37 51/121/37 58/122/37
f 57/123/38 54/124/38 45/125/38 48/126/38
f 53/127/39 56/128/39 47/129/39 46/130/39
f 60/131/40 49/132/40 54/133/40 57/134/40
f 54/104/33 49/135/33 50/105/33
f 50/105/33 51/136/33 52/106/33
f 52/106/33 53/137/33 46/138/33
f 46/138/33 45/139/33 52/106/33
f 45/139/33 54/104/33 52/106/33
f 60/140/41 57/141/41 48/142/41
f 48/142/41 47/143/41 56/144/41
f 56/144/41 55/145/41 58/146/41
f 58/147/41 59/148/41 60/149/41
f 60/140/41 48/142/41 56/144/41 58/146/41
o jio_Cube.009
v -0.760498 -0.000000 -1.706250
v -0.760498 1.000000 -1.706250
v 1.789502 1.000000 -1.706250
v 1.789503 -0.000000 -1.706250
v 1.789502 1.000000 -1.256250
v 1.789503 -0.000000 -1.256250
v -0.760498 1.000000 -1.256250
v -0.760498 -0.000000 -1.256250
vt 0.125659 0.586379
vt 0.374341 0.586379
vt 0.374341 0.163621
vt 0.125659 0.163621
vt 0.212698 0.250659
vt 0.212698 0.499341
vt 0.287302 0.499341
vt 0.287302 0.250659
vt 0.125659 0.163621
vt 0.374341 0.163621
vt 0.374341 0.586379
vt 0.125659 0.586379
vt 0.287302 0.250659
vt 0.287302 0.499341
vt 0.212698 0.499341
vt 0.212698 0.250659
vt 0.212698 0.163621
vt 0.287302 0.163621
vt 0.287302 0.586379
vt 0.212698 0.586379
vn 0.0000 0.0000 -1.0000
vn 1.0000 0.0000 -0.0000
vn 0.0000 0.0000 1.0000
vn -1.0000 -0.0000 0.0000
vn 0.0000 -1.0000 0.0000
usemtl LargePipe
s 1
f 61/150/42 62/151/42 63/152/42 64/153/42
f 64/154/43 63/155/43 65/156/43 66/157/43
f 66/158/44 65/159/44 67/160/44 68/161/44
f 68/162/45 67/163/45 62/164/45 61/165/45
f 64/166/46 66/167/46 68/168/46 61/169/46
o 小水管上_Cylinder.002
v 0.675274 1.962500 -1.124866
v 0.675274 3.012500 -1.124866
v 0.353730 3.012500 -1.124866
v 0.353730 1.962500 -1.124866
v 0.139368 3.012500 -1.339228
v 0.139368 1.962500 -1.339228
v 0.139368 3.012500 -1.660772
v 0.139368 1.962500 -1.660772
v 0.353730 3.012500 -1.875134
v 0.353730 1.962500 -1.875134
v 0.675274 3.012500 -1.875134
v 0.675274 1.962500 -1.875134
v 0.889636 3.012500 -1.660772
v 0.889636 1.962500 -1.660772
v 0.889636 3.012500 -1.339228
v 0.889636 1.962500 -1.339228
vt 0.531250 0.000000
vt 0.531250 0.812500
vt 0.656250 0.812500
vt 0.656250 0.000000
vt 0.500000 0.000000
vt 0.500000 0.812500
vt 0.375000 0.812500
vt 0.375000 0.000000
vt 0.250000 0.812500
vt 0.250000 0.000000
vt 0.125000 0.812500
vt 0.125000 0.000000
vt 0.000000 0.812500
vt 0.000000 0.000000
vt 0.125000 0.000000
vt 0.125000 0.812500
vt 0.250000 0.812500
vt 0.250000 0.000000
vt 0.781250 0.343750
vt 0.687500 0.125000
vt 0.906250 0.031250
vt 0.375000 0.812500
vt 0.375000 0.000000
vt 0.500000 0.812500
vt 0.500000 0.000000
vt 1.000000 0.250000
vt 0.906250 0.312500
vt 0.718750 0.250000
vt 0.781250 0.062500
vt 0.968750 0.125000
vn 0.0000 0.0000 1.0000
vn -0.7071 -0.0000 0.7071
vn -1.0000 -0.0000 0.0000
vn -0.7071 -0.0000 -0.7071
vn 0.0000 0.0000 -1.0000
vn 0.7071 0.0000 -0.7071
vn 0.0000 1.0000 0.0000
vn 1.0000 0.0000 -0.0000
vn 0.7071 0.0000 0.7071
usemtl Tube
s 1
f 69/170/47 70/171/47 71/172/47 72/173/47
f 72/174/48 71/175/48 73/176/48 74/177/48
f 74/177/49 73/176/49 75/178/49 76/179/49
f 76/179/50 75/178/50 77/180/50 78/181/50
f 78/181/51 77/180/51 79/182/51 80/183/51
f 80/184/52 79/185/52 81/186/52 82/187/52
f 70/188/53 81/189/53 77/190/53
f 82/187/54 81/186/54 83/191/54 84/192/54
f 84/192/55 83/191/55 70/193/55 69/194/55
f 73/195/53 71/196/53 70/188/53
f 70/188/53 83/197/53 81/189/53
f 81/189/53 79/198/53 77/190/53
f 77/190/53 75/199/53 73/195/53
f 73/195/53 70/188/53 77/190/53
o 小水管下_Cylinder.004
v 0.353731 1.037500 1.875134
v 0.353731 -0.012500 1.875134
v 0.675275 -0.012500 1.875134
v 0.675275 1.037500 1.875134
v 0.889637 -0.012500 1.660772
v 0.889637 1.037500 1.660772
v 0.889637 -0.012500 1.339228
v 0.889637 1.037500 1.339228
v 0.675275 -0.012500 1.124866
v 0.675275 1.037500 1.124866
v 0.353731 -0.012500 1.124866
v 0.353730 1.037500 1.124866
v 0.139369 -0.012500 1.339228
v 0.139369 1.037500 1.339228
v 0.139369 -0.012500 1.660772
v 0.139369 1.037500 1.660772
vt 0.531250 0.000000
vt 0.531250 0.812500
vt 0.656250 0.812500
vt 0.656250 0.000000
vt 0.500000 0.000000
vt 0.500000 0.812500
vt 0.375000 0.812500
vt 0.375000 0.000000
vt 0.250000 0.812500
vt 0.250000 0.000000
vt 0.125000 0.812500
vt 0.125000 0.000000
vt 0.000000 0.812500
vt 0.000000 0.000000
vt 0.125000 0.000000
vt 0.125000 0.812500
vt 0.250000 0.812500
vt 0.250000 0.000000
vt 0.785085 0.613569
vt 0.698931 0.410085
vt 0.902415 0.323931
vt 0.375000 0.812500
vt 0.375000 0.000000
vt 0.500000 0.812500
vt 0.500000 0.000000
vt 0.988569 0.527415
vt 0.895442 0.590840
vt 0.721660 0.520442
vt 0.792058 0.346660
vt 0.965840 0.417058
vn 0.0000 0.0000 1.0000
vn 0.7071 0.0000 0.7071
vn 1.0000 0.0000 -0.0000
vn 0.7071 0.0000 -0.7071
vn 0.0000 0.0000 -1.0000
vn -0.7071 -0.0000 -0.7071
vn 0.0000 -1.0000 -0.0000
vn -1.0000 -0.0000 0.0000
vn -0.7071 -0.0000 0.7071
usemtl Tube
s 1
f 85/200/56 86/201/56 87/202/56 88/203/56
f 88/204/57 87/205/57 89/206/57 90/207/57
f 90/207/58 89/206/58 91/208/58 92/209/58
f 92/209/59 91/208/59 93/210/59 94/211/59
f 94/211/60 93/210/60 95/212/60 96/213/60
f 96/214/61 95/215/61 97/216/61 98/217/61
f 86/218/62 97/219/62 93/220/62
f 98/217/63 97/216/63 99/221/63 100/222/63
f 100/222/64 99/221/64 86/223/64 85/224/64
f 89/225/62 87/226/62 86/218/62
f 86/218/62 99/227/62 97/219/62
f 97/219/62 95/228/62 93/220/62
f 93/220/62 91/229/62 89/225/62
f 89/225/62 86/218/62 93/220/62
