# Blender v2.83.2 OBJ File: 'heat_exchanger_large.blend'
# www.blender.org
mtllib heat_exchanger_large.mtl
o yuanzhu_Cylinder.012
v 1.098104 0.138264 -2.250000
v 1.098105 0.138264 3.000000
v -0.069099 0.138264 3.000000
v -0.069098 0.138264 -2.250000
v -0.847233 0.916398 3.000000
v -0.847234 0.916398 -2.250000
v -0.847234 2.083601 3.000000
v -0.847234 2.083601 -2.250000
v -0.069100 2.861736 3.000000
v -0.069100 2.861736 -2.250000
v 1.098104 2.861736 3.000000
v 1.098104 2.861736 -2.250000
v 1.876239 2.083602 3.000000
v 1.876238 2.083602 -2.250000
v 1.876239 0.916398 3.000000
v 1.876238 0.916398 -2.250000
v 1.195370 2.180868 -3.000000
v -0.166366 2.180868 -3.000000
v 1.195370 0.819132 -3.000000
v -0.166366 0.819132 -3.000000
vt 0.531250 0.812500
vt 0.656250 0.000000
vt 0.531250 0.000000
vt 0.500000 0.812500
vt 0.375000 0.000000
vt 0.500000 0.000000
vt 0.375000 0.812500
vt 0.250000 0.000000
vt 0.250000 0.812500
vt 0.125000 0.000000
vt 0.125000 0.812500
vt 0.000000 0.000000
vt 0.125000 0.812500
vt 0.250000 0.000000
vt 0.125000 0.000000
vt 0.250000 0.812500
vt 0.375000 0.000000
vt 0.375000 0.812500
vt 0.500000 0.000000
vt 0.272344 0.100000
vt 0.273594 0.100000
vt 0.273594 0.100000
vt 0.789062 0.406250
vt 0.914062 0.281250
vt 0.789062 0.281250
vt 0.276094 0.100000
vt 0.277344 0.100000
vt 0.276094 0.100000
vt 0.278906 0.100000
vt 0.277656 0.100000
vt 0.277656 0.100000
vt 0.274844 0.100000
vt 0.276094 0.100000
vt 0.276094 0.100000
vt 0.273594 0.100000
vt 0.274844 0.100000
vt 0.273594 0.100000
vt 0.274844 0.100000
vt 0.274844 0.100000
vt 0.277344 0.100000
vt 0.277344 0.100000
vt 0.656250 0.812500
vt 0.000000 0.812500
vt 0.500000 0.812500
vt 0.272344 0.100000
vt 0.914062 0.406250
vt 0.278906 0.100000
vn 0.0000 -1.0000 -0.0000
vn -0.7071 -0.7071 0.0000
vn -1.0000 -0.0000 0.0000
vn -0.7071 0.7071 0.0000
vn 0.0000 1.0000 -0.0000
vn 0.7071 0.7071 -0.0000
vn 1.0000 0.0000 -0.0000
vn 0.7071 -0.7071 -0.0000
vn 0.0000 0.7404 -0.6722
vn 0.0000 0.0000 -1.0000
vn 0.6195 -0.6195 -0.4821
vn 0.0000 -0.7404 -0.6722
vn -0.7404 -0.0000 -0.6722
vn 0.6195 0.6195 -0.4821
vn -0.6195 0.6195 -0.4821
vn 0.7404 0.0000 -0.6722
vn -0.6195 -0.6195 -0.4821
usemtl LargePipe
s 1
f 2/1/1 4/2/1 1/3/1
f 3/4/2 6/5/2 4/6/2
f 5/7/3 8/8/3 6/5/3
f 7/9/4 10/10/4 8/8/4
f 9/11/5 12/12/5 10/10/5
f 11/13/6 14/14/6 12/15/6
f 13/16/7 16/17/7 14/14/7
f 15/18/8 1/19/8 16/17/8
f 12/20/9 18/21/9 10/22/9
f 20/23/10 17/24/10 19/25/10
f 16/26/11 1/27/11 19/28/11
f 4/29/12 19/30/12 1/31/12
f 8/32/13 20/33/13 6/34/13
f 12/35/14 14/36/14 17/37/14
f 8/32/15 10/22/15 18/38/15
f 16/26/16 17/39/16 14/36/16
f 4/40/17 6/34/17 20/41/17
f 2/1/1 3/42/1 4/2/1
f 3/4/2 5/7/2 6/5/2
f 5/7/3 7/9/3 8/8/3
f 7/9/4 9/11/4 10/10/4
f 9/11/5 11/43/5 12/12/5
f 11/13/6 13/16/6 14/14/6
f 13/16/7 15/18/7 16/17/7
f 15/18/8 2/44/8 1/19/8
f 12/20/9 17/45/9 18/21/9
f 20/23/10 18/46/10 17/24/10
f 4/29/12 20/47/12 19/30/12
f 8/32/13 18/38/13 20/33/13
f 16/26/16 19/28/16 17/39/16
o Cylinder.001
v 1.133253 0.056250 2.955418
v 1.133253 0.056250 3.017918
v -0.104247 0.056250 3.017918
v -0.104247 0.056250 2.955418
v -0.929247 0.881249 3.017918
v -0.929247 0.881249 2.955418
v -0.929248 2.118749 3.017918
v -0.929248 2.118749 2.955418
v -0.104248 2.943750 3.017918
v -0.104248 2.943750 2.955418
v 1.133252 2.943750 3.017918
v 1.133252 2.943750 2.955418
v 1.958253 2.118750 3.017918
v 1.958253 2.118750 2.955418
v 1.958253 0.881250 3.017918
v 1.958253 0.881250 2.955418
vt 0.842608 0.296209
vt 0.841153 0.315416
vt 0.841153 0.296209
vt 0.842608 0.315416
vt 0.841153 0.328220
vt 0.842608 0.296597
vt 0.841153 0.315804
vt 0.841153 0.296597
vt 0.842608 0.328220
vt 0.841153 0.315416
vt 0.841153 0.328220
vt 0.842608 0.315416
vt 0.841153 0.296209
vt 0.842608 0.328608
vt 0.841153 0.315804
vt 0.841153 0.328608
vt 0.842608 0.315804
vt 0.841153 0.296597
vt 0.842608 0.283405
vt 0.841153 0.283405
vt 0.831982 0.283405
vt 0.819178 0.315416
vt 0.851189 0.328220
vt 0.819178 0.296209
vt 0.831982 0.328220
vt 0.863993 0.315416
vt 0.863993 0.296209
vt 0.851189 0.283405
vt 0.842608 0.328220
vt 0.842608 0.315804
vt 0.842608 0.296209
vt 0.842608 0.296597
vn 0.0000 -1.0000 0.0000
vn -0.7071 -0.7071 0.0000
vn -1.0000 -0.0000 0.0000
vn -0.7071 0.7071 0.0000
vn 0.0000 1.0000 0.0000
vn 0.7071 0.7071 0.0000
vn 1.0000 0.0000 0.0000
vn 0.7071 -0.7071 0.0000
vn -0.0000 -0.0000 -1.0000
usemtl LargePipe
s 1
f 22/48/18 24/49/18 21/50/18
f 23/51/19 26/52/19 24/49/19
f 25/53/20 28/54/20 26/55/20
f 27/56/21 30/57/21 28/58/21
f 29/59/22 32/60/22 30/57/22
f 31/61/23 34/62/23 32/63/23
f 22/48/18 23/51/18 24/49/18
f 33/64/24 36/65/24 34/62/24
f 35/66/25 21/50/25 36/67/25
f 36/68/26 24/69/26 28/70/26
f 36/68/26 21/71/26 24/69/26
f 24/69/26 26/72/26 28/70/26
f 28/70/26 30/73/26 32/74/26
f 32/74/26 34/75/26 28/70/26
f 34/75/26 36/68/26 28/70/26
f 23/51/19 25/76/19 26/52/19
f 25/53/20 27/77/20 28/54/20
f 27/56/21 29/59/21 30/57/21
f 29/59/22 31/78/22 32/60/22
f 31/61/23 33/64/23 34/62/23
f 33/64/24 35/79/24 36/65/24
f 35/66/25 22/48/25 21/50/25
o jio_Cube.009
v -0.760498 -0.000000 -1.706250
v -0.760498 1.000000 -1.706250
v 1.789502 1.000000 -1.706250
v 1.789503 -0.000000 -1.706250
v 1.789502 1.000000 -1.256250
v 1.789503 -0.000000 -1.256250
v -0.760498 1.000000 -1.256250
v -0.760498 -0.000000 -1.256250
vt 0.374341 0.586379
vt 0.125659 0.163621
vt 0.125659 0.586379
vt 0.212698 0.499341
vt 0.287302 0.250659
vt 0.212698 0.250659
vt 0.374341 0.163621
vt 0.125659 0.586379
vt 0.125659 0.163621
vt 0.287302 0.499341
vt 0.212698 0.250659
vt 0.287302 0.250659
vt 0.287302 0.163621
vt 0.212698 0.586379
vt 0.212698 0.163621
vt 0.374341 0.163621
vt 0.287302 0.499341
vt 0.374341 0.586379
vt 0.212698 0.499341
vt 0.287302 0.586379
vn 0.0000 0.0000 -1.0000
vn 1.0000 0.0000 -0.0000
vn 0.0000 0.0000 1.0000
vn -1.0000 -0.0000 0.0000
vn 0.0000 -1.0000 0.0000
usemtl LargePipe
s 1
f 38/80/27 40/81/27 37/82/27
f 39/83/28 42/84/28 40/85/28
f 41/86/29 44/87/29 42/88/29
f 43/89/30 37/90/30 44/91/30
f 42/92/31 37/93/31 40/94/31
f 38/80/27 39/95/27 40/81/27
f 39/83/28 41/96/28 42/84/28
f 41/86/29 43/97/29 44/87/29
f 43/89/30 38/98/30 37/90/30
f 42/92/31 44/99/31 37/93/31
o 小水管上_Cylinder.002
v 0.675274 1.962500 -1.124866
v 0.675274 3.012500 -1.124866
v 0.353730 3.012500 -1.124866
v 0.353730 1.962500 -1.124866
v 0.139368 3.012500 -1.339228
v 0.139368 1.962500 -1.339228
v 0.139368 3.012500 -1.660772
v 0.139368 1.962500 -1.660772
v 0.353730 3.012500 -1.875134
v 0.353730 1.962500 -1.875134
v 0.675274 3.012500 -1.875134
v 0.675274 1.962500 -1.875134
v 0.889636 3.012500 -1.660772
v 0.889636 1.962500 -1.660772
v 0.889636 3.012500 -1.339228
v 0.889636 1.962500 -1.339228
vt 0.531250 0.812500
vt 0.656250 0.000000
vt 0.531250 0.000000
vt 0.500000 0.812500
vt 0.375000 0.000000
vt 0.500000 0.000000
vt 0.375000 0.812500
vt 0.250000 0.000000
vt 0.250000 0.812500
vt 0.125000 0.000000
vt 0.125000 0.812500
vt 0.000000 0.000000
vt 0.125000 0.812500
vt 0.250000 0.000000
vt 0.125000 0.000000
vt 0.781250 0.343750
vt 0.687500 0.125000
vt 0.906250 0.031250
vt 0.250000 0.812500
vt 0.375000 0.000000
vt 0.375000 0.812500
vt 0.500000 0.000000
vt 1.000000 0.250000
vt 0.906250 0.312500
vt 0.718750 0.250000
vt 0.781250 0.062500
vt 0.968750 0.125000
vt 0.656250 0.812500
vt 0.000000 0.812500
vt 0.500000 0.812500
vn 0.0000 0.0000 1.0000
vn -0.7071 -0.0000 0.7071
vn -1.0000 -0.0000 0.0000
vn -0.7071 -0.0000 -0.7071
vn 0.0000 0.0000 -1.0000
vn 0.7071 0.0000 -0.7071
vn 0.0000 1.0000 0.0000
vn 1.0000 0.0000 -0.0000
vn 0.7071 0.0000 0.7071
usemtl Tube
s 1
f 46/100/32 48/101/32 45/102/32
f 47/103/33 50/104/33 48/105/33
f 49/106/34 52/107/34 50/104/34
f 51/108/35 54/109/35 52/107/35
f 53/110/36 56/111/36 54/109/36
f 55/112/37 58/113/37 56/114/37
f 46/115/38 57/116/38 53/117/38
f 57/118/39 60/119/39 58/113/39
f 59/120/40 45/121/40 60/119/40
f 49/122/38 47/123/38 46/115/38
f 46/115/38 59/124/38 57/116/38
f 57/116/38 55/125/38 53/117/38
f 53/117/38 51/126/38 49/122/38
f 49/122/38 46/115/38 53/117/38
f 46/100/32 47/127/32 48/101/32
f 47/103/33 49/106/33 50/104/33
f 49/106/34 51/108/34 52/107/34
f 51/108/35 53/110/35 54/109/35
f 53/110/36 55/128/36 56/111/36
f 55/112/37 57/118/37 58/113/37
f 57/118/39 59/120/39 60/119/39
f 59/120/40 46/129/40 45/121/40
o 小水管下_Cylinder.004
v 0.353731 1.037500 1.875134
v 0.353731 -0.012500 1.875134
v 0.675275 -0.012500 1.875134
v 0.675275 1.037500 1.875134
v 0.889637 -0.012500 1.660772
v 0.889637 1.037500 1.660772
v 0.889637 -0.012500 1.339228
v 0.889637 1.037500 1.339228
v 0.675275 -0.012500 1.124866
v 0.675275 1.037500 1.124866
v 0.353731 -0.012500 1.124866
v 0.353730 1.037500 1.124866
v 0.139369 -0.012500 1.339228
v 0.139369 1.037500 1.339228
v 0.139369 -0.012500 1.660772
v 0.139369 1.037500 1.660772
vt 0.531250 0.812500
vt 0.656250 0.000000
vt 0.531250 0.000000
vt 0.500000 0.812500
vt 0.375000 0.000000
vt 0.500000 0.000000
vt 0.375000 0.812500
vt 0.250000 0.000000
vt 0.250000 0.812500
vt 0.125000 0.000000
vt 0.125000 0.812500
vt 0.000000 0.000000
vt 0.125000 0.812500
vt 0.250000 0.000000
vt 0.125000 0.000000
vt 0.785085 0.613569
vt 0.698931 0.410085
vt 0.902415 0.323931
vt 0.250000 0.812500
vt 0.375000 0.000000
vt 0.375000 0.812500
vt 0.500000 0.000000
vt 0.988569 0.527415
vt 0.895442 0.590840
vt 0.721660 0.520442
vt 0.792058 0.346660
vt 0.965840 0.417058
vt 0.656250 0.812500
vt 0.000000 0.812500
vt 0.500000 0.812500
vn 0.0000 0.0000 1.0000
vn 0.7071 0.0000 0.7071
vn 1.0000 0.0000 -0.0000
vn 0.7071 0.0000 -0.7071
vn 0.0000 0.0000 -1.0000
vn -0.7071 -0.0000 -0.7071
vn 0.0000 -1.0000 -0.0000
vn -1.0000 -0.0000 0.0000
vn -0.7071 -0.0000 0.7071
usemtl Tube
s 1
f 62/130/41 64/131/41 61/132/41
f 63/133/42 66/134/42 64/135/42
f 65/136/43 68/137/43 66/134/43
f 67/138/44 70/139/44 68/137/44
f 69/140/45 72/141/45 70/139/45
f 71/142/46 74/143/46 72/144/46
f 62/145/47 73/146/47 69/147/47
f 73/148/48 76/149/48 74/143/48
f 75/150/49 61/151/49 76/149/49
f 65/152/47 63/153/47 62/145/47
f 62/145/47 75/154/47 73/146/47
f 73/146/47 71/155/47 69/147/47
f 69/147/47 67/156/47 65/152/47
f 65/152/47 62/145/47 69/147/47
f 62/130/41 63/157/41 64/131/41
f 63/133/42 65/136/42 66/134/42
f 65/136/43 67/138/43 68/137/43
f 67/138/44 69/140/44 70/139/44
f 69/140/45 71/158/45 72/141/45
f 71/142/46 73/148/46 74/143/46
f 73/148/48 75/150/48 76/149/48
f 75/150/49 62/159/49 61/151/49
o jio_Cube.001
v -0.760497 -0.000000 2.032574
v -0.760498 1.000000 2.032574
v 1.789503 1.000000 2.032574
v 1.789503 -0.000000 2.032574
v 1.789503 1.000000 2.482574
v 1.789503 -0.000000 2.482574
v -0.760498 1.000000 2.482574
v -0.760497 -0.000000 2.482574
vt 0.374341 0.586379
vt 0.125659 0.163621
vt 0.125659 0.586379
vt 0.212698 0.499341
vt 0.287302 0.250659
vt 0.212698 0.250659
vt 0.374341 0.163621
vt 0.125659 0.586379
vt 0.125659 0.163621
vt 0.287302 0.499341
vt 0.212698 0.250659
vt 0.287302 0.250659
vt 0.287302 0.163621
vt 0.212698 0.586379
vt 0.212698 0.163621
vt 0.374341 0.163621
vt 0.287302 0.499341
vt 0.374341 0.586379
vt 0.212698 0.499341
vt 0.287302 0.586379
vn -0.0000 -0.0000 -1.0000
vn 1.0000 0.0000 0.0000
vn -0.0000 0.0000 1.0000
vn -1.0000 -0.0000 0.0000
vn 0.0000 -1.0000 0.0000
usemtl LargePipe
s 1
f 78/160/50 80/161/50 77/162/50
f 79/163/51 82/164/51 80/165/51
f 81/166/52 84/167/52 82/168/52
f 83/169/53 77/170/53 84/171/53
f 82/172/54 77/173/54 80/174/54
f 78/160/50 79/175/50 80/161/50
f 79/163/51 81/176/51 82/164/51
f 81/166/52 83/177/52 84/167/52
f 83/169/53 78/178/53 77/170/53
f 82/172/54 84/179/54 77/173/54
o Cube
v -1.000000 0.116741 4.000000
v -0.883259 0.000000 4.000000
v -0.883259 3.000000 4.000000
v -1.000000 2.883259 4.000000
v -0.883259 0.000000 3.000000
v -1.000000 0.116741 3.000000
v -1.000000 2.883259 3.000000
v -0.883259 3.000000 3.000000
v 1.883259 0.000000 4.000000
v 2.000000 0.116741 4.000000
v 2.000000 2.883259 4.000000
v 1.883259 3.000000 4.000000
v 2.000000 0.116741 3.000000
v 1.883259 0.000000 3.000000
v 1.883259 3.000000 3.000000
v 2.000000 2.883259 3.000000
vt 0.773438 0.014593
vt 0.758845 0.000000
vt 0.413030 0.375000
vt 0.000000 0.796875
vt 0.125000 0.421875
vt 0.000000 0.421875
vt 0.328125 0.796875
vt 0.203125 0.421875
vt 0.328125 0.421875
vt 0.125000 0.796875
vt -0.000000 0.421875
vt 0.125000 0.421875
vt 0.000000 0.014593
vt 0.014593 0.000000
vt 0.360407 0.375000
vt 0.382812 0.782282
vt 0.507812 0.796875
vt 0.507812 0.782282
vt 0.328125 0.782282
vt 0.203125 0.796875
vt 0.203125 0.782282
vt 0.507812 0.436468
vt 0.382812 0.421875
vt 0.382812 0.436468
vt 0.203125 0.436468
vt 0.328125 0.421875
vt 0.328125 0.436468
vt 0.507812 0.421875
vt 0.382812 0.796875
vt 0.507812 0.796875
vt 0.413030 0.000000
vt 0.398438 0.014593
vt 0.398438 0.360407
vt 0.758845 0.375000
vt 0.773438 0.360407
vt 0.125000 0.796875
vt 0.203125 0.796875
vt -0.000000 0.796875
vt 0.360407 0.000000
vt 0.375000 0.014593
vt 0.375000 0.360407
vt 0.014593 0.375000
vt 0.000000 0.360407
vt 0.382812 0.796875
vt 0.328125 0.796875
vt 0.507812 0.421875
vt 0.203125 0.421875
vt 0.382812 0.421875
vn 0.0000 0.0000 1.0000
vn 1.0000 0.0000 0.0000
vn 0.0000 1.0000 0.0000
vn -1.0000 0.0000 0.0000
vn 0.0000 0.0000 -1.0000
vn -0.7071 -0.7071 0.0000
vn -0.7071 0.7071 0.0000
vn 0.7071 -0.7071 0.0000
vn 0.7071 0.7071 0.0000
vn 0.0000 -1.0000 0.0000
usemtl Cube
s off
f 85/180/55 86/181/55 96/182/55
f 100/183/56 94/184/56 97/185/56
f 92/186/57 96/187/57 99/188/57
f 88/189/58 90/190/58 85/191/58
f 97/192/59 98/193/59 92/194/59
f 86/195/60 90/196/60 89/197/60
f 92/198/61 88/199/61 87/200/61
f 98/201/62 94/202/62 93/203/62
f 96/204/63 100/205/63 99/206/63
f 98/207/64 86/208/64 89/209/64
f 86/181/55 93/210/55 94/211/55
f 94/211/55 95/212/55 86/181/55
f 95/212/55 96/182/55 86/181/55
f 96/182/55 87/213/55 88/214/55
f 88/214/55 85/180/55 96/182/55
f 100/183/56 95/215/56 94/184/56
f 92/186/57 87/216/57 96/187/57
f 88/189/58 91/217/58 90/190/58
f 98/193/59 89/218/59 90/219/59
f 90/219/59 91/220/59 98/193/59
f 91/220/59 92/194/59 98/193/59
f 92/194/59 99/221/59 100/222/59
f 100/222/59 97/192/59 92/194/59
f 86/195/60 85/223/60 90/196/60
f 92/198/61 91/224/61 88/199/61
f 98/201/62 97/225/62 94/202/62
f 96/204/63 95/226/63 100/205/63
f 98/207/64 93/227/64 86/208/64
