# Blender v2.91.0 OBJ File: '二号模型.blend'
# www.blender.org
mtllib heat_exchanger_medium.mtl
o Cube_Cube.005
v 1.000000 -0.500000 0.500000
v 1.000000 0.500000 0.500000
v 1.000000 -0.500000 -0.500000
v 1.000000 0.500000 -0.500000
v 2.000000 -0.500000 0.500000
v 2.000000 0.500000 0.500000
v 2.000000 -0.500000 -0.500000
v 2.000000 0.500000 -0.500000
vt 0.375000 0.000000
vt 0.625000 0.000000
vt 0.625000 0.250000
vt 0.375000 0.250000
vt 0.625000 0.500000
vt 0.375000 0.500000
vt 0.625000 0.750000
vt 0.375000 0.750000
vt 0.625000 1.000000
vt 0.375000 1.000000
vt 0.125000 0.500000
vt 0.125000 0.750000
vt 0.875000 0.500000
vt 0.875000 0.750000
vn -1.0000 0.0000 0.0000
vn 0.0000 0.0000 -1.0000
vn 1.0000 0.0000 0.0000
vn 0.0000 0.0000 1.0000
vn 0.0000 -1.0000 0.0000
vn 0.0000 1.0000 0.0000
g Cube_Cube.005_m_cube
usemtl m_cube
s off
f 1/1/1 2/2/1 4/3/1 3/4/1
f 3/4/2 4/3/2 8/5/2 7/6/2
f 7/6/3 8/5/3 6/7/3 5/8/3
f 5/8/4 6/7/4 2/9/4 1/10/4
f 3/11/5 7/6/5 5/8/5 1/12/5
f 8/5/6 4/13/6 2/14/6 6/7/6
o yuanzhu_Cylinder.012
v -2.500000 -1.407824 -0.889068
v 1.000000 -1.407824 -0.889068
v -2.500000 -1.407824 -0.110933
v 1.000000 -1.407824 -0.110932
v -2.500000 -0.889068 0.407824
v 1.000000 -0.889068 0.407824
v -2.500000 -0.110932 0.407824
v 1.000000 -0.110932 0.407824
v -2.500000 0.407824 -0.110932
v 1.000000 0.407824 -0.110932
v -2.500000 0.407824 -0.889068
v 1.000000 0.407824 -0.889068
v -2.500000 -0.110932 -1.407824
v 1.000000 -0.110932 -1.407824
v -2.500000 -0.889068 -1.407824
v 1.000000 -0.889068 -1.407824
v -3.000000 -0.953912 -0.046088
v -3.000000 -0.046088 -0.046088
v -3.000000 -0.046088 -0.953912
v -3.000000 -0.953912 -0.953912
vt 0.531250 0.000000
vt 0.531250 0.812500
vt 0.656250 0.812500
vt 0.656250 0.000000
vt 0.500000 0.000000
vt 0.500000 0.812500
vt 0.375000 0.812500
vt 0.375000 0.000000
vt 0.250000 0.812500
vt 0.250000 0.000000
vt 0.125000 0.812500
vt 0.125000 0.000000
vt 0.000000 0.812500
vt 0.000000 0.000000
vt 0.125000 0.000000
vt 0.125000 0.812500
vt 0.250000 0.812500
vt 0.250000 0.000000
vt 0.937500 0.562500
vt 0.843750 0.625000
vt 0.750000 0.562500
vt 0.687500 0.468750
vt 0.750000 0.375000
vt 0.843750 0.312500
vt 0.937500 0.375000
vt 1.000000 0.468750
vt 0.375000 0.812500
vt 0.375000 0.000000
vt 0.500000 0.812500
vt 0.500000 0.000000
vt 0.273594 0.100000
vt 0.272344 0.100000
vt 0.272344 0.100000
vt 0.273594 0.100000
vt 0.789062 0.281250
vt 0.789062 0.406250
vt 0.914062 0.406250
vt 0.914062 0.281250
vt 0.276094 0.100000
vt 0.277344 0.100000
vt 0.276094 0.100000
vt 0.277656 0.100000
vt 0.278906 0.100000
vt 0.278906 0.100000
vt 0.277656 0.100000
vt 0.276094 0.100000
vt 0.274844 0.100000
vt 0.274844 0.100000
vt 0.276094 0.100000
vt 0.273594 0.100000
vt 0.274844 0.100000
vt 0.273594 0.100000
vt 0.274844 0.100000
vt 0.277344 0.100000
vt 0.277344 0.100000
vn 0.0000 -1.0000 0.0000
vn -0.0000 -0.7071 0.7071
vn -0.0000 -0.0000 1.0000
vn 0.0000 0.7071 0.7071
vn -0.0000 1.0000 0.0000
vn 0.0000 0.7071 -0.7071
vn 1.0000 0.0000 0.0000
vn 0.0000 0.0000 -1.0000
vn 0.0000 -0.7071 -0.7071
vn -0.6722 0.7404 0.0000
vn -1.0000 0.0000 0.0000
vn -0.4821 -0.6195 -0.6195
vn -0.6722 -0.7404 0.0000
vn -0.6722 0.0000 0.7404
vn -0.4821 0.6195 -0.6195
vn -0.4821 0.6195 0.6195
vn -0.6722 -0.0000 -0.7404
vn -0.4821 -0.6195 0.6195
g yuanzhu_Cylinder.012_m_zhu
usemtl m_zhu
s off
f 9/15/7 10/16/7 12/17/7 11/18/7
f 11/19/8 12/20/8 14/21/8 13/22/8
f 13/22/9 14/21/9 16/23/9 15/24/9
f 15/24/10 16/23/10 18/25/10 17/26/10
f 17/26/11 18/25/11 20/27/11 19/28/11
f 19/29/12 20/30/12 22/31/12 21/32/12
f 12/33/13 10/34/13 24/35/13 22/36/13 20/37/13 18/38/13 16/39/13 14/40/13
f 21/32/14 22/31/14 24/41/14 23/42/14
f 23/42/15 24/41/15 10/43/15 9/44/15
f 17/45/16 19/46/16 27/47/16 26/48/16
f 28/49/17 25/50/17 26/51/17 27/52/17
f 23/53/18 9/54/18 28/55/18
f 9/56/19 11/57/19 25/58/19 28/59/19
f 13/60/20 15/61/20 26/62/20 25/63/20
f 19/64/21 21/65/21 27/66/21
f 15/61/22 17/45/22 26/62/22
f 21/65/23 23/53/23 28/55/23 27/67/23
f 11/68/24 13/60/24 25/69/24
o Cylinder.001
v 0.955418 -1.462500 -0.912500
v 1.017918 -1.462500 -0.912500
v 0.955418 -1.462500 -0.087500
v 1.017918 -1.462500 -0.087500
v 0.955418 -0.912500 0.462500
v 1.017918 -0.912500 0.462500
v 0.955418 -0.087500 0.462500
v 1.017918 -0.087500 0.462500
v 0.955418 0.462500 -0.087500
v 1.017918 0.462500 -0.087500
v 0.955418 0.462500 -0.912500
v 1.017918 0.462500 -0.912500
v 0.955418 -0.087500 -1.462500
v 1.017918 -0.087500 -1.462500
v 0.955418 -0.912500 -1.462500
v 1.017918 -0.912500 -1.462500
vt 0.486048 0.731791
vt 0.486048 0.731791
vt 0.486048 0.731791
vt 0.486048 0.731791
vt 0.486048 0.731791
vt 0.486048 0.731791
vt 0.486048 0.731791
vt 0.486048 0.731791
vt 0.486048 0.731791
vt 0.486048 0.731791
vt 0.486048 0.731791
vt 0.486048 0.731791
vt 0.486048 0.731791
vt 0.486048 0.731791
vt 0.486048 0.731791
vt 0.486048 0.731791
vn 0.0000 -1.0000 0.0000
vn 0.0000 -0.7071 0.7071
vn 0.0000 0.0000 1.0000
vn 0.0000 0.7071 0.7071
vn 0.0000 1.0000 0.0000
vn 0.0000 0.7071 -0.7071
vn 1.0000 -0.0000 0.0000
vn 0.0000 0.0000 -1.0000
vn 0.0000 -0.7071 -0.7071
vn -1.0000 -0.0000 0.0000
g Cylinder.001_Cylinder.001_m_zhu.001
usemtl m_zhu.001
s off
f 29/70/25 30/71/25 32/72/25 31/73/25
f 31/73/26 32/72/26 34/74/26 33/75/26
f 33/75/27 34/74/27 36/76/27 35/77/27
f 35/77/28 36/76/28 38/78/28 37/79/28
f 37/79/29 38/78/29 40/80/29 39/81/29
f 39/81/30 40/80/30 42/82/30 41/83/30
f 32/72/31 30/71/31 44/84/31 42/82/31 40/80/31 38/78/31 36/76/31 34/74/31
f 41/83/32 42/82/32 44/84/32 43/85/32
f 43/85/33 44/84/33 30/71/33 29/70/33
f 29/70/34 31/73/34 33/75/34 35/77/34 37/79/34 39/81/34 41/83/34 43/85/34
o Cube.001_Cube.002
v 1.000000 -1.500000 0.432408
v 1.000000 -1.432408 0.500000
v 1.000000 0.432408 0.500000
v 1.000000 0.500000 0.432408
v 1.000000 -1.432408 -1.500000
v 1.000000 -1.500000 -1.432408
v 1.000000 0.500000 -1.432408
v 1.000000 0.432408 -1.500000
v 2.000000 -1.432408 0.500000
v 2.000000 -1.500000 0.432408
v 2.000000 0.500000 0.432408
v 2.000000 0.432408 0.500000
v 2.000000 -1.500000 -1.432408
v 2.000000 -1.432408 -1.500000
v 2.000000 0.432408 -1.500000
v 2.000000 0.500000 -1.432408
vt 0.132812 0.625000
vt 0.367188 0.625000
vt 0.367188 0.500000
vt 0.132812 0.500000
vt 0.617188 0.250000
vt 0.625000 0.257812
vt 0.625000 0.492188
vt 0.617188 0.500000
vt 0.382812 0.500000
vt 0.375000 0.492188
vt 0.375000 0.257812
vt 0.382812 0.250000
vt 0.617188 0.625000
vt 0.382812 0.625000
vt 0.375000 0.008449
vt 0.383449 0.000000
vt 0.616551 0.000000
vt 0.625000 0.008449
vt 0.625000 0.241551
vt 0.616551 0.250000
vt 0.383449 0.250000
vt 0.375000 0.241551
vt 0.132812 0.500000
vt 0.367188 0.500000
vt 0.367188 0.625000
vt 0.132812 0.625000
vt 0.375000 0.508449
vt 0.125000 0.508449
vt 0.125000 0.500000
vt 0.375000 0.500000
vt 0.625000 0.250000
vt 0.625000 0.500000
vt 0.616551 0.500000
vt 0.125000 0.741551
vt 0.375000 0.741551
vt 0.375000 0.750000
vt 0.125000 0.750000
vt 0.625000 0.750000
vt 0.625000 1.000000
vt 0.616551 1.000000
vt 0.616551 0.750000
vt 0.632812 0.625000
vt 0.632812 0.500000
vt 0.867188 0.500000
vt 0.867188 0.625000
vn 0.0000 0.0000 1.0000
vn 1.0000 0.0000 0.0000
vn 0.0000 1.0000 0.0000
vn -1.0000 0.0000 0.0000
vn 0.0000 0.0000 -1.0000
vn 0.0000 -0.7071 -0.7071
vn 0.0000 0.7071 -0.7071
vn 0.0000 -0.7071 0.7071
vn 0.0000 0.7071 0.7071
vn 0.0000 -1.0000 0.0000
g Cube.001_Cube.002_m_cube.002
usemtl m_cube.002
s off
f 53/86/35 56/87/35 47/88/35 46/89/35
f 57/90/36 58/91/36 59/92/36 60/93/36 55/94/36 56/95/36 53/96/36 54/97/36
f 60/93/37 51/98/37 48/99/37 55/94/37
f 45/100/38 46/101/38 47/102/38 48/103/38 51/104/38 52/105/38 49/106/38 50/107/38
f 49/108/39 52/109/39 59/110/39 58/111/39
f 57/112/40 50/113/40 49/114/40 58/115/40
f 51/116/41 60/117/41 59/118/41 52/105/41
f 45/119/42 54/120/42 53/121/42 46/122/42
f 55/123/43 48/124/43 47/125/43 56/126/43
f 50/127/44 57/128/44 54/129/44 45/130/44
o Cube.003
v 1.000000 -1.500000 0.500000
v 1.000000 -0.500000 0.500000
v 1.000000 -1.500000 -0.500000
v 1.000000 -0.500000 -0.500000
v 2.000000 -1.500000 0.500000
v 2.000000 -0.500000 0.500000
v 2.000000 -1.500000 -0.500000
v 2.000000 -0.500000 -0.500000
vt 0.375000 0.000000
vt 0.625000 0.000000
vt 0.625000 0.250000
vt 0.375000 0.250000
vt 0.625000 0.500000
vt 0.375000 0.500000
vt 0.625000 0.750000
vt 0.375000 0.750000
vt 0.625000 1.000000
vt 0.375000 1.000000
vt 0.125000 0.500000
vt 0.125000 0.750000
vt 0.875000 0.500000
vt 0.875000 0.750000
vn -1.0000 0.0000 0.0000
vn 0.0000 0.0000 -1.0000
vn 1.0000 0.0000 0.0000
vn 0.0000 0.0000 1.0000
vn 0.0000 -1.0000 0.0000
vn 0.0000 1.0000 0.0000
g Cube.003_Cube.003_m_cube.003
usemtl m_cube.003
s off
f 61/131/45 62/132/45 64/133/45 63/134/45
f 63/134/46 64/133/46 68/135/46 67/136/46
f 67/136/47 68/135/47 66/137/47 65/138/47
f 65/138/48 66/137/48 62/139/48 61/140/48
f 63/141/49 67/136/49 65/138/49 61/142/49
f 68/135/50 64/143/50 62/144/50 66/137/50
o Cube.004
v 1.000000 -1.500000 -0.500000
v 1.000000 -0.500000 -0.500000
v 1.000000 -1.500000 -1.500000
v 1.000000 -0.500000 -1.500000
v 2.000000 -1.500000 -0.500000
v 2.000000 -0.500000 -0.500000
v 2.000000 -1.500000 -1.500000
v 2.000000 -0.500000 -1.500000
vt 0.375000 0.000000
vt 0.625000 0.000000
vt 0.625000 0.250000
vt 0.375000 0.250000
vt 0.625000 0.500000
vt 0.375000 0.500000
vt 0.625000 0.750000
vt 0.375000 0.750000
vt 0.625000 1.000000
vt 0.375000 1.000000
vt 0.125000 0.500000
vt 0.125000 0.750000
vt 0.875000 0.500000
vt 0.875000 0.750000
vn -1.0000 0.0000 0.0000
vn 0.0000 0.0000 -1.0000
vn 1.0000 0.0000 0.0000
vn 0.0000 0.0000 1.0000
vn 0.0000 -1.0000 0.0000
vn 0.0000 1.0000 0.0000
g Cube.004_Cube.004_m_cube.004
usemtl m_cube.004
s off
f 69/145/51 70/146/51 72/147/51 71/148/51
f 71/148/52 72/147/52 76/149/52 75/150/52
f 75/150/53 76/149/53 74/151/53 73/152/53
f 73/152/54 74/151/54 70/153/54 69/154/54
f 71/155/55 75/150/55 73/152/55 69/156/55
f 76/149/56 72/157/56 70/158/56 74/151/56
o jio_Cube.009
v -1.837500 -1.500000 0.350000
v -1.837500 -0.500000 0.350000
v -1.837500 -1.500000 -1.350000
v -1.837500 -0.500000 -1.350000
v -1.537500 -1.500000 0.350000
v -1.537500 -0.500000 0.350000
v -1.537500 -1.500000 -1.350000
v -1.537500 -0.500000 -1.350000
vt 0.000000 0.375000
vt 0.000000 0.625000
vt 0.343750 0.625000
vt 0.343750 0.375000
vt 0.343750 0.343750
vt 0.406250 0.625000
vt 0.406250 0.343750
vt 0.000000 0.375000
vt 0.000000 0.625000
vt 0.343750 0.625000
vt 0.343750 0.375000
vt 0.343750 0.343750
vt 0.406250 0.625000
vt 0.406250 0.343750
vt 0.531250 0.343750
vt 0.468750 0.343750
vt 0.468750 0.656250
vt 0.531250 0.656250
vt 0.333333 0.666667
vt 0.000000 0.666667
vt 0.000000 1.000000
vt 0.333333 1.000000
vn -1.0000 0.0000 0.0000
vn 0.0000 0.0000 -1.0000
vn 1.0000 0.0000 0.0000
vn 0.0000 0.0000 1.0000
vn 0.0000 -1.0000 0.0000
vn 0.0000 1.0000 0.0000
g jio_Cube.009_m_cube.008
usemtl m_cube.008
s off
f 77/159/57 78/160/57 80/161/57 79/162/57
f 79/163/58 80/161/58 84/164/58 83/165/58
f 83/166/59 84/167/59 82/168/59 81/169/59
f 81/170/60 82/168/60 78/171/60 77/172/60
f 79/173/61 83/174/61 81/175/61 77/176/61
f 84/177/62 80/178/62 78/179/62 82/180/62
o 小水管上_Cylinder.002
v 0.875134 -0.537500 -0.160772
v 0.875134 0.512500 -0.160772
v 0.875134 -0.537500 0.160772
v 0.875134 0.512500 0.160772
v 0.660772 -0.537500 0.375134
v 0.660772 0.512500 0.375134
v 0.339228 -0.537500 0.375134
v 0.339228 0.512500 0.375134
v 0.124866 -0.537500 0.160772
v 0.124866 0.512500 0.160772
v 0.124866 -0.537500 -0.160772
v 0.124866 0.512500 -0.160772
v 0.339228 -0.537500 -0.375134
v 0.339228 0.512500 -0.375134
v 0.660772 -0.537500 -0.375134
v 0.660772 0.512500 -0.375134
v 0.687567 -0.687500 0.187567
v 0.312433 -0.687500 0.187567
v 0.312433 -0.687500 -0.187567
v 0.687567 -0.687500 -0.187567
vt 0.531250 0.000000
vt 0.531250 0.812500
vt 0.656250 0.812500
vt 0.656250 0.000000
vt 0.500000 0.000000
vt 0.500000 0.812500
vt 0.375000 0.812500
vt 0.375000 0.000000
vt 0.250000 0.812500
vt 0.250000 0.000000
vt 0.125000 0.812500
vt 0.125000 0.000000
vt 0.000000 0.812500
vt 0.000000 0.000000
vt 0.125000 0.000000
vt 0.125000 0.812500
vt 0.250000 0.812500
vt 0.250000 0.000000
vt 0.906250 0.312500
vt 0.781250 0.343750
vt 0.718750 0.250000
vt 0.687500 0.125000
vt 0.781250 0.062500
vt 0.906250 0.031250
vt 0.968750 0.125000
vt 1.000000 0.250000
vt 0.375000 0.812500
vt 0.375000 0.000000
vt 0.500000 0.812500
vt 0.500000 0.000000
vt 0.000000 0.000000
vt 0.125000 0.000000
vt 0.531250 0.437500
vt 0.406250 0.437500
vt 0.406250 0.562500
vt 0.531250 0.562500
vt 0.375000 0.000000
vt 0.656250 0.000000
vt 0.531250 0.000000
vt 0.250000 0.000000
vt 0.375000 0.000000
vt 0.125000 0.000000
vt 0.250000 0.000000
vt 0.500000 0.000000
vn 1.0000 0.0000 0.0000
vn 0.7071 -0.0000 0.7071
vn -0.0000 0.0000 1.0000
vn -0.7071 0.0000 0.7071
vn -1.0000 0.0000 -0.0000
vn -0.7071 0.0000 -0.7071
vn 0.0000 1.0000 0.0000
vn 0.0000 0.0000 -1.0000
vn 0.7071 -0.0000 -0.7071
vn -0.6246 -0.7810 -0.0000
vn 0.0000 -1.0000 -0.0000
vn 0.5635 -0.6040 -0.5635
vn 0.6246 -0.7810 0.0000
vn -0.0000 -0.7810 0.6246
vn -0.5635 -0.6040 -0.5635
vn -0.5635 -0.6040 0.5635
vn 0.0000 -0.7810 -0.6246
vn 0.5635 -0.6040 0.5635
g 小水管上_Cylinder.002_m_zhu.003
usemtl m_zhu.003
s off
f 85/181/63 86/182/63 88/183/63 87/184/63
f 87/185/64 88/186/64 90/187/64 89/188/64
f 89/188/65 90/187/65 92/189/65 91/190/65
f 91/190/66 92/189/66 94/191/66 93/192/66
f 93/192/67 94/191/67 96/193/67 95/194/67
f 95/195/68 96/196/68 98/197/68 97/198/68
f 88/199/69 86/200/69 100/201/69 98/202/69 96/203/69 94/204/69 92/205/69 90/206/69
f 97/198/70 98/197/70 100/207/70 99/208/70
f 99/208/71 100/207/71 86/209/71 85/210/71
f 93/192/72 95/194/72 103/211/72 102/212/72
f 104/213/73 101/214/73 102/215/73 103/216/73
f 99/208/74 85/210/74 104/217/74
f 85/181/75 87/184/75 101/218/75 104/219/75
f 89/188/76 91/190/76 102/220/76 101/221/76
f 95/195/77 97/198/77 103/222/77
f 91/190/78 93/192/78 102/220/78
f 97/198/79 99/208/79 104/217/79 103/223/79
f 87/185/80 89/188/80 101/224/80
o Cube.002_Cube.001
v 0.000000 -1.500000 -0.500000
v 0.000000 -0.500000 -0.500000
v 0.000000 -1.500000 -1.500000
v 0.000000 -0.500000 -1.500000
v 1.000000 -1.500000 -0.500000
v 1.000000 -0.500000 -0.500000
v 1.000000 -1.500000 -1.500000
v 1.000000 -0.500000 -1.500000
vt 0.375000 0.000000
vt 0.625000 0.000000
vt 0.625000 0.250000
vt 0.375000 0.250000
vt 0.625000 0.500000
vt 0.375000 0.500000
vt 0.625000 0.750000
vt 0.375000 0.750000
vt 0.625000 1.000000
vt 0.375000 1.000000
vt 0.125000 0.500000
vt 0.125000 0.750000
vt 0.875000 0.500000
vt 0.875000 0.750000
vn -1.0000 0.0000 0.0000
vn 0.0000 0.0000 -1.0000
vn 1.0000 0.0000 0.0000
vn 0.0000 0.0000 1.0000
vn 0.0000 -1.0000 0.0000
vn 0.0000 1.0000 0.0000
g Cube.002_Cube.001_m_cube.009
usemtl m_cube.009
s off
f 105/225/81 106/226/81 108/227/81 107/228/81
f 107/228/82 108/227/82 112/229/82 111/230/82
f 111/230/83 112/229/83 110/231/83 109/232/83
f 109/232/84 110/231/84 106/233/84 105/234/84
f 107/235/85 111/230/85 109/232/85 105/236/85
f 112/229/86 108/237/86 106/238/86 110/231/86
o 小水管下_Cylinder.004
v 0.875134 -0.462500 -0.839228
v 0.875134 -1.512500 -0.839228
v 0.875134 -0.462500 -1.160772
v 0.875134 -1.512500 -1.160772
v 0.660772 -0.462500 -1.375134
v 0.660772 -1.512500 -1.375134
v 0.339228 -0.462500 -1.375134
v 0.339228 -1.512500 -1.375134
v 0.124866 -0.462500 -1.160772
v 0.124866 -1.512500 -1.160772
v 0.124866 -0.462500 -0.839228
v 0.124866 -1.512500 -0.839228
v 0.339228 -0.462500 -0.624866
v 0.339228 -1.512500 -0.624866
v 0.660772 -0.462500 -0.624866
v 0.660772 -1.512500 -0.624866
v 0.687567 -0.312500 -1.187567
v 0.312433 -0.312500 -1.187567
v 0.312433 -0.312500 -0.812433
v 0.687567 -0.312500 -0.812433
vt 0.531250 0.000000
vt 0.531250 0.812500
vt 0.656250 0.812500
vt 0.656250 0.000000
vt 0.500000 0.000000
vt 0.500000 0.812500
vt 0.375000 0.812500
vt 0.375000 0.000000
vt 0.250000 0.812500
vt 0.250000 0.000000
vt 0.125000 0.812500
vt 0.125000 0.000000
vt 0.000000 0.812500
vt 0.000000 0.000000
vt 0.125000 0.000000
vt 0.125000 0.812500
vt 0.250000 0.812500
vt 0.250000 0.000000
vt 0.895442 0.590840
vt 0.785085 0.613569
vt 0.721660 0.520442
vt 0.698931 0.410085
vt 0.792058 0.346660
vt 0.902415 0.323931
vt 0.965840 0.417058
vt 0.988569 0.527415
vt 0.375000 0.812500
vt 0.375000 0.000000
vt 0.500000 0.812500
vt 0.500000 0.000000
vt 0.000000 0.000000
vt 0.125000 0.000000
vt 0.531250 0.437500
vt 0.406250 0.437500
vt 0.406250 0.562500
vt 0.531250 0.562500
vt 0.375000 0.000000
vt 0.656250 0.000000
vt 0.531250 0.000000
vt 0.250000 0.000000
vt 0.375000 0.000000
vt 0.125000 0.000000
vt 0.250000 0.000000
vt 0.500000 0.000000
vn 1.0000 -0.0000 -0.0000
vn 0.7071 -0.0000 -0.7071
vn 0.0000 -0.0000 -1.0000
vn -0.7071 -0.0000 -0.7071
vn -1.0000 -0.0000 0.0000
vn -0.7071 0.0000 0.7071
vn 0.0000 -1.0000 -0.0000
vn 0.0000 0.0000 1.0000
vn 0.7071 0.0000 0.7071
vn -0.6246 0.7810 -0.0000
vn -0.0000 1.0000 -0.0000
vn 0.5635 0.6040 0.5635
vn 0.6246 0.7810 -0.0000
vn -0.0000 0.7810 -0.6246
vn -0.5635 0.6040 0.5635
vn -0.5635 0.6040 -0.5635
vn -0.0000 0.7810 0.6246
vn 0.5635 0.6040 -0.5635
g 小水管下_Cylinder.004_m_zhu.005
usemtl m_zhu.005
s off
f 113/239/87 114/240/87 116/241/87 115/242/87
f 115/243/88 116/244/88 118/245/88 117/246/88
f 117/246/89 118/245/89 120/247/89 119/248/89
f 119/248/90 120/247/90 122/249/90 121/250/90
f 121/250/91 122/249/91 124/251/91 123/252/91
f 123/253/92 124/254/92 126/255/92 125/256/92
f 116/257/93 114/258/93 128/259/93 126/260/93 124/261/93 122/262/93 120/263/93 118/264/93
f 125/256/94 126/255/94 128/265/94 127/266/94
f 127/266/95 128/265/95 114/267/95 113/268/95
f 121/250/96 123/252/96 131/269/96 130/270/96
f 132/271/97 129/272/97 130/273/97 131/274/97
f 127/266/98 113/268/98 132/275/98
f 113/239/99 115/242/99 129/276/99 132/277/99
f 117/246/100 119/248/100 130/278/100 129/279/100
f 123/253/101 125/256/101 131/280/101
f 119/248/102 121/250/102 130/278/102
f 125/256/103 127/266/103 132/275/103 131/281/103
f 115/243/104 117/246/104 129/282/104
